<?xml version="1.0" encoding="UTF-8"?>
<svg xmlns="http://www.w3.org/2000/svg" xmlns:xlink="http://www.w3.org/1999/xlink" version="1.1" viewBox="0 0 171 86">
  <defs>
    <linearGradient id="shimmer" x1="0%" y1="0%" x2="100%" y2="0%">
      <stop offset="0%" stop-color="#B3B9D1" stop-opacity="1" />
      <stop offset="50%" stop-color="#FFFFFF" stop-opacity="1" />
      <stop offset="100%" stop-color="#B3B9D1" stop-opacity="1" />
      <animate
        attributeName="x1"
        values="-100%;0%;100%"
        dur="4s"
        repeatCount="indefinite"
        id="shimmerAnim"
        begin="0s"
      />
      <animate
        attributeName="x2"
        values="0%;100%;200%"
        dur="4s"
        begin="0s;shimmerAnim.end+10s"
        repeatCount="indefinite"
        fill="freeze"
        id="shimmerAnim2"
      />
      <animate
        attributeName="stop-color"
        values="#CACEFF; #CACEFF"
        dur="5s"
        begin="0s;shimmerAnim2.end"
        fill="freeze"
      />
    </linearGradient>
    <style>
      .cls-1 {
        mask: url(#mask);
      }

      .cls-2 {
        fill: #ffdee5;
      }

      .cls-2, .cls-4 {
        stroke: #474c62;
        stroke-width: .5px;
      }

      .cls-5, .cls-4 {
        fill: #e4e6ff;
      }

      .cls-6 {
        fill: #fff;
      }

      .cls-7 {
        fill: #474c62;
      }

      #orbit {
        stroke: url(#shimmer);
      }

    </style>
    <mask id="mask" x="35.1" y="10" width="99" height="38" maskUnits="userSpaceOnUse">
      <g id="path-1-outside-1_60_7">
        <rect class="cls-6" x="35.1" y="10" width="99" height="38"/>
        <path d="M36.9,47c-.5,0-.7-.2-.7-.5s.2-.5.7-.6h.7c.6-.3,1.1-.6,1.4-1.1.3-.5.6-1.2.8-2.1l7.4-30c0-.3.2-.5.3-.6.2,0,.3-.1.4-.1s.3,0,.4.1c.2,0,.3.3.3.6l7.6,30.4c.2.9.5,1.5.8,1.9.3.4.7.6,1.3.7h.7c.4.2.7.4.7.8s-.2.5-.7.5h-8.2c-.4,0-.7-.2-.7-.5s.3-.5.8-.6h.9c.5-.2.9-.3,1-.6.2-.3.2-.8,0-1.5l-1.8-7.4c-.2-.8-.7-1.2-1.6-1.2h-5c-.8,0-1.4.4-1.6,1.2l-1.6,6.4c-.5,1.8,0,2.8,1.4,3h.7c.5.2.8.4.8.7s-.2.5-.7.5h-6.7ZM44.4,33.7h5.3c.5,0,.7-.3.6-.8l-3.1-12.9h-.2l-3.2,12.9c0,.5.1.8.6.8ZM68.9,47.4c-1.3,0-2.6-.4-3.8-1.2-.7-.5-1.3-.4-1.9.4-.3.4-.6.6-.7.7-.2.1-.3.2-.5.2-.4,0-.5-.2-.4-.7.1-.7.2-1.7.3-2.8,0-1.2,0-2.7,0-4.6v-23c0-.6,0-1-.3-1.2-.2-.2-.5-.4-.9-.4h-1c-.4-.2-.5-.4-.5-.7s.2-.5.5-.6c.9-.2,1.6-.4,2.3-.7.6-.3,1.1-.5,1.5-.8.5-.3.9-.5,1.2-.5s.5.3.5.8v11.9c0,.3,0,.4.3.5.2,0,.5,0,.7-.3,1.4-1.4,2.9-2.1,4.5-2.1s2.8.5,3.9,1.5c1.2,1,2,2.3,2.7,4,.7,1.7,1,3.8,1,6.1s-.4,5-1.2,7.1-2,3.6-3.4,4.8c-1.4,1.2-3,1.7-4.8,1.7ZM68.8,46.2c1.8,0,3.2-1.1,4.3-3.2,1.1-2.1,1.7-5,1.7-8.5s-.5-5.8-1.4-7.5c-1-1.7-2.3-2.6-4.1-2.6s-2,.4-2.8,1.3c-.8.9-1.2,2.1-1.2,3.7v12.1c0,1.4.3,2.6,1,3.4.7.8,1.5,1.2,2.6,1.2ZM90.1,47.4c-1.6,0-3.1-.5-4.4-1.6-1.3-1.1-2.3-2.6-3.1-4.6-.8-1.9-1.2-4.1-1.2-6.4s.4-4.5,1.2-6.4,1.8-3.4,3.1-4.5c1.3-1.1,2.8-1.7,4.4-1.7s3.1.6,4.4,1.7c1.3,1.1,2.4,2.6,3.1,4.5s1.2,4,1.2,6.4-.4,4.5-1.2,6.4c-.7,1.9-1.8,3.4-3.1,4.6-1.3,1.1-2.8,1.6-4.4,1.6ZM90.1,46.2c3.3,0,5-3.8,5-11.4s-1.7-11.4-5-11.4-5,3.8-5,11.4,1.7,11.4,5,11.4ZM108.1,47.4c-.8,0-1.6-.2-2.3-.5s-1.3-.9-1.8-1.7c-.5-.8-.7-1.8-.7-3.1v-16.7c0-.6,0-1-.3-1.2-.2-.2-.5-.4-.9-.4h-.8c-.5-.2-.8-.4-.8-.7s.3-.6.9-.6h4.5c.5,0,.7.2.7.7v17.9c0,1.5.3,2.5.8,3.2.6.6,1.4.9,2.4.9s1.9-.3,2.6-.8c.8-.6,1.4-1.3,1.8-2.3.5-1,.7-2,.7-3.1v-13.6c0-.6,0-1-.3-1.2-.2-.2-.5-.4-.9-.4h-.8c-.5-.2-.8-.4-.8-.7s.3-.6.9-.6h4.5c.5,0,.7.2.7.7v18.6c0,.6,0,1,.2,1.2.2.2.5.3,1,.4h1c.4.2.6.3.6.6s-.3.5-.8.6c-1,.1-1.8.4-2.4.8-.6.4-1.1.8-1.5,1.4-.3.3-.5.4-.7.4-.3,0-.4-.2-.4-.6v-2.2c0-.3,0-.4-.3-.4-.2,0-.3,0-.5.2-1.2,1.2-2.2,2-3.2,2.5-.9.5-1.9.7-3,.7ZM128.8,47.4c-1.1,0-2-.4-2.8-1.2-.7-.8-1.1-2.1-1.1-3.9v-18c0-.4-.2-.6-.6-.6h-1.4c-.5,0-.8-.2-.8-.6s.1-.5.4-.7c1.1-.7,1.9-1.5,2.5-2.4.6-.9,1.2-2,1.7-3.5.2-.7.5-1,.8-1s.5.3.5.8v5.3c0,.4.2.7.7.7h3.1c.5,0,.8.2.8.7s-.3.7-.8.7h-3.1c-.4,0-.7.2-.7.7v17.9c0,.7.1,1.3.3,1.7.2.4.6.6,1.2.6s1.2-.3,1.6-1c.4-.7.7-1.8.9-3.3,0-.4.3-.7.6-.7s.6.2.6.7c0,2.5-.6,4.2-1.5,5.3-.9,1.1-2,1.6-3.2,1.6Z"/>
      </g>
    </mask>
  </defs>
  <!-- Generator: Adobe Illustrator 28.6.0, SVG Export Plug-In . SVG Version: 1.2.0 Build 709)  -->
  <g>
    <g id="_レイヤー_1" data-name="レイヤー_1">
      <path id="about_x5F_inside" class="cls-5" d="M36.9,47c-.5,0-.7-.2-.7-.5s.2-.5.7-.6h.7c.6-.3,1.1-.6,1.4-1.1.3-.5.6-1.2.8-2.1l7.4-30c0-.3.2-.5.3-.6.2,0,.3-.1.4-.1s.3,0,.4.1c.2,0,.3.3.3.6l7.6,30.4c.2.9.5,1.5.8,1.9.3.4.7.6,1.3.7h.7c.4.2.7.4.7.8s-.2.5-.7.5h-8.2c-.4,0-.7-.2-.7-.5s.3-.5.8-.6h.9c.5-.2.9-.3,1-.6.2-.3.2-.8,0-1.5l-1.8-7.4c-.2-.8-.7-1.2-1.6-1.2h-5c-.8,0-1.4.4-1.6,1.2l-1.6,6.4c-.5,1.8,0,2.8,1.4,3h.7c.5.2.8.4.8.7s-.2.5-.7.5h-6.7ZM44.4,33.7h5.3c.5,0,.7-.3.6-.8l-3.1-12.9h-.2l-3.2,12.9c0,.5.1.8.6.8ZM68.9,47.4c-1.3,0-2.6-.4-3.8-1.2-.7-.5-1.3-.4-1.9.4-.3.4-.6.6-.7.7-.2.1-.3.2-.5.2-.4,0-.5-.2-.4-.7.1-.7.2-1.7.3-2.8,0-1.2,0-2.7,0-4.6v-23c0-.6,0-1-.3-1.2-.2-.2-.5-.4-.9-.4h-1c-.4-.2-.5-.4-.5-.7s.2-.5.5-.6c.9-.2,1.6-.4,2.3-.7.6-.3,1.1-.5,1.5-.8.5-.3.9-.5,1.2-.5s.5.3.5.8v11.9c0,.3,0,.4.3.5.2,0,.5,0,.7-.3,1.4-1.4,2.9-2.1,4.5-2.1s2.8.5,3.9,1.5c1.2,1,2,2.3,2.7,4,.7,1.7,1,3.8,1,6.1s-.4,5-1.2,7.1-2,3.6-3.4,4.8c-1.4,1.2-3,1.7-4.8,1.7ZM68.8,46.2c1.8,0,3.2-1.1,4.3-3.2,1.1-2.1,1.7-5,1.7-8.5s-.5-5.8-1.4-7.5c-1-1.7-2.3-2.6-4.1-2.6s-2,.4-2.8,1.3c-.8.9-1.2,2.1-1.2,3.7v12.1c0,1.4.3,2.6,1,3.4.7.8,1.5,1.2,2.6,1.2ZM90.1,47.4c-1.6,0-3.1-.5-4.4-1.6-1.3-1.1-2.3-2.6-3.1-4.6-.8-1.9-1.2-4.1-1.2-6.4s.4-4.5,1.2-6.4,1.8-3.4,3.1-4.5c1.3-1.1,2.8-1.7,4.4-1.7s3.1.6,4.4,1.7c1.3,1.1,2.4,2.6,3.1,4.5s1.2,4,1.2,6.4-.4,4.5-1.2,6.4c-.7,1.9-1.8,3.4-3.1,4.6-1.3,1.1-2.8,1.6-4.4,1.6ZM90.1,46.2c3.3,0,5-3.8,5-11.4s-1.7-11.4-5-11.4-5,3.8-5,11.4,1.7,11.4,5,11.4ZM108.1,47.4c-.8,0-1.6-.2-2.3-.5s-1.3-.9-1.8-1.7c-.5-.8-.7-1.8-.7-3.1v-16.7c0-.6,0-1-.3-1.2-.2-.2-.5-.4-.9-.4h-.8c-.5-.2-.8-.4-.8-.7s.3-.6.9-.6h4.5c.5,0,.7.2.7.7v17.9c0,1.5.3,2.5.8,3.2.6.6,1.4.9,2.4.9s1.9-.3,2.6-.8c.8-.6,1.4-1.3,1.8-2.3.5-1,.7-2,.7-3.1v-13.6c0-.6,0-1-.3-1.2-.2-.2-.5-.4-.9-.4h-.8c-.5-.2-.8-.4-.8-.7s.3-.6.9-.6h4.5c.5,0,.7.2.7.7v18.6c0,.6,0,1,.2,1.2.2.2.5.3,1,.4h1c.4.2.6.3.6.6s-.3.5-.8.6c-1,.1-1.8.4-2.4.8-.6.4-1.1.8-1.5,1.4-.3.3-.5.4-.7.4-.3,0-.4-.2-.4-.6v-2.2c0-.3,0-.4-.3-.4-.2,0-.3,0-.5.2-1.2,1.2-2.2,2-3.2,2.5-.9.5-1.9.7-3,.7ZM128.8,47.4c-1.1,0-2-.4-2.8-1.2-.7-.8-1.1-2.1-1.1-3.9v-18c0-.4-.2-.6-.6-.6h-1.4c-.5,0-.8-.2-.8-.6s.1-.5.4-.7c1.1-.7,1.9-1.5,2.5-2.4.6-.9,1.2-2,1.7-3.5.2-.7.5-1,.8-1s.5.3.5.8v5.3c0,.4.2.7.7.7h3.1c.5,0,.8.2.8.7s-.3.7-.8.7h-3.1c-.4,0-.7.2-.7.7v17.9c0,.7.1,1.3.3,1.7.2.4.6.6,1.2.6s1.2-.3,1.6-1c.4-.7.7-1.8.9-3.3,0-.4.3-.7.6-.7s.6.2.6.7c0,2.5-.6,4.2-1.5,5.3-.9,1.1-2,1.6-3.2,1.6Z"/>
      <g class="cls-1">
        <path id="about" class="cls-7" d="M36.9,45.9v-.5c0,0-.1,0-.1,0v.5ZM37.6,45.8v.5h0v-.5ZM39.1,44.8l.4.3h0s0,0,0,0l-.4-.3ZM39.9,42.7h.5c0,.1,0,.1,0,.1h-.5ZM47.3,12.7h.5c0,.1,0,.1,0,.1h0s-.5-.1-.5-.1ZM47.6,12.1l-.3-.4h0s0,0,0,0l.3.4ZM48.5,12.1l-.3.4h0s0,0,0,0l.3-.4ZM48.8,12.7h-.5c0,0,0,.1,0,.1h0s.5-.1.5-.1ZM56.4,43.2h-.5c0,.1,0,.1,0,.1h.5ZM58.5,45.8v.5c-.1,0,0,0,0,0v-.5ZM59.2,45.9v-.5c.1,0,0,0,0,0v.5ZM51.1,45.9v.5s0,0,0,0h0s0-.5,0-.5ZM52,45.8v.5c0,0,0,0,0,0v-.5ZM53,45.3l-.4-.2h0s0,0,0,0l.5.2ZM53,43.8h.5c0-.1,0-.1,0-.1h-.5ZM51.2,36.3h-.5c0,.1,0,.1,0,.1h.5ZM43,36.3h-.5c0-.1,0-.1,0-.1h.5ZM41.4,42.8h.5c0,.1,0,.1,0,.1h-.5ZM42.8,45.8v.5h0v-.5ZM43.5,45.9v-.5c0,0,0,0,0,0h0s0,.5,0,.5ZM50.3,32.8h.5c0,0,0-.1,0-.1h0s-.5.1-.5.1ZM47.3,20h.5c0-.1,0-.5,0-.5h-.4v.5ZM47,20v-.5h-.4v.4c0,0,.4.1.4.1ZM43.8,32.8h-.5c0-.1,0-.1,0-.1h0s.5.1.5.1ZM36.9,46.5c0,0-.2,0-.2,0,0,0,0,0,0,0,0,0,0,0,0,0,0,0,0,0,0,0h-1c0,.3.1.6.4.8.2.2.5.2.8.2v-1ZM36.7,46.5s0,0,0,0c0,0,0,0,0,0,0,0,0,0,.3-.1l-.2-1c-.3,0-.5.2-.7.4-.2.2-.3.5-.3.8h1ZM37,46.4h.7c0-.1-.2-1.1-.2-1.1h-.7c0,.1.2,1.1.2,1.1ZM37.7,46.2c.8-.2,1.4-.5,1.8-1.1l-.8-.6c-.2.4-.6.6-1.1.7l.2,1ZM39.5,45.1c.4-.6.6-1.3.9-2.3l-1-.2c-.2.9-.5,1.5-.8,2l.8.5ZM40.4,42.8l7.4-30-1-.2-7.4,30,1,.2ZM47.8,12.8c0-.1,0-.2,0-.3,0,0,0,0,0,0l-.6-.8c-.3.2-.4.6-.5.9l1,.2ZM47.9,12.5c.1,0,.2,0,.2,0v-1c-.3,0-.5,0-.7.2l.5.9ZM48,12.5c0,0,0,0,.1,0l.6-.8c-.2-.2-.5-.2-.7-.2v1ZM48.2,12.5s0,0,0,0c0,0,0,.1,0,.3l1-.2c0-.4-.2-.7-.6-1l-.5.9ZM48.3,12.8l7.6,30.4,1-.2-7.6-30.4-1,.2ZM55.9,43.3c.2.9.5,1.6.9,2.1l.8-.6c-.2-.3-.4-.8-.7-1.7l-1,.2ZM56.8,45.3c.4.5.9.7,1.6.9l.2-1c-.5-.1-.9-.3-1.1-.5l-.8.6ZM58.4,46.2h.7c0,.1.2-.8.2-.8h-.7c0-.1-.2.8-.2.8ZM59.1,46.4c.2,0,.2,0,.3.1,0,0,0,0,0,0,0,0,0,0,0,0h1c0-.3-.1-.6-.3-.8-.2-.2-.5-.3-.7-.4l-.2,1ZM59.4,46.5s0,0,0,0c0,0,0,0,0,0,0,0,0,0,0,0,0,0-.1,0-.2,0v1c.3,0,.6,0,.8-.2.3-.2.4-.5.4-.8h-1ZM59.2,46.5h-8.2v1h8.2v-1ZM51,46.5c0,0-.1,0-.2,0,0,0,0,0,0,0,0,0,0,0,0,0,0,0,0,0,0,0h-1c0,.3,0,.6.4.8.2.2.5.2.8.2v-1ZM50.8,46.5s0,0,0,0c0,0,0,0,0,0,0,0,.1,0,.4,0v-1c-.4,0-.7,0-.9.3-.3.2-.4.5-.4.8h1ZM51.2,46.4h.9c0,0-.1-1.1-.1-1.1h-.9c0,0,.1,1.1.1,1.1ZM52.1,46.3c.6,0,1.2-.3,1.4-.8l-.9-.4s-.1.2-.6.2v1ZM53.5,45.5c.1-.2.2-.5.2-.8s0-.6-.1-1l-1,.2c0,.3.1.6.1.8s0,.3,0,.3l.9.5ZM53.5,43.7l-1.8-7.4-1,.2,1.8,7.4,1-.2ZM51.7,36.2c-.1-.5-.3-.9-.7-1.2-.4-.3-.8-.4-1.4-.4v1c.4,0,.6,0,.7.2.2.1.3.3.4.7l1-.2ZM49.6,34.6h-5v1h5v-1ZM44.6,34.6c-.5,0-1,.1-1.3.4-.4.3-.6.7-.7,1.2l1,.3c0-.3.2-.5.4-.7.2-.1.4-.2.7-.2v-1ZM42.5,36.2l-1.6,6.4,1,.2,1.6-6.4-1-.2ZM40.9,42.6c-.3,1-.3,1.8,0,2.5.3.7,1,1.1,1.8,1.2v-1c-.5,0-.8-.3-.9-.6-.2-.3-.2-.9,0-1.8l-1-.3ZM42.7,46.3h.7c0,0,.1-.9.1-.9h-.7c0,0-.1.9-.1.9ZM43.4,46.4c.2,0,.4,0,.4.1,0,0,0,0,0,0,0,0,0,0,0,0h1c0-.3-.2-.6-.4-.8-.2-.2-.5-.2-.8-.3l-.2,1ZM43.8,46.5s0,0,0,0c0,0,0,0,0,0,0,0,0,0,0,0,0,0,0,0-.2,0v1c.3,0,.6,0,.8-.2.3-.2.4-.5.4-.8h-1ZM43.7,46.5h-6.7v1h6.7v-1ZM44.4,34.2h5.3v-1h-5.3v1ZM49.7,34.2c.3,0,.7,0,.9-.4.2-.3.2-.7.2-1l-1,.2c0,.1,0,.2,0,.2,0,0,0,0,0,0,0,0,0,0-.1,0v1ZM50.8,32.7l-3.1-12.9-1,.2,3.1,12.9,1-.2ZM47.3,19.5h-.2v1h.2v-1ZM46.5,19.9l-3.2,12.9,1,.2,3.2-12.9-1-.2ZM43.3,32.8c0,.3,0,.7.2,1,.2.3.6.4.9.4v-1c-.2,0-.2,0-.1,0,0,0,0,0,0,0,0,0,0-.1,0-.2l-1-.2ZM65.1,46.2l.3-.4h0s-.3.4-.3.4ZM63.2,46.6l.4.3h0s0,0,0,0l-.4-.3ZM62.5,47.2l-.3-.4h0s0,0,0,0l.3.4ZM61.6,46.8h.5c0,.1,0,0,0,0h0s-.5,0-.5,0ZM61.9,43.9h-.5s.5,0,.5,0ZM61.7,15.1l-.4.3h0s0,0,0,0l.4-.4ZM60.8,14.7v-.5h0v.5ZM59.8,14.6v.5c0,0,0,0,0,0h0s0-.5,0-.5ZM59.8,13.4v.5c0,0,0,0,0,0h0s-.1-.5-.1-.5ZM62.1,12.7l-.2-.5h0l.2.5ZM63.6,12l.3.4h0s-.3-.4-.3-.4ZM65.6,24.6l-.2.4h0s0,0,0,0v-.5ZM66.3,24.3l.4.4h0s-.4-.4-.4-.4ZM74.7,23.7l-.3.4h0s0,0,0,0l.3-.4ZM77.4,27.8l-.5.2h0s.5-.2.5-.2ZM77.1,40.9l-.5-.2h0l.5.2ZM73.7,45.7l-.3-.4h0s.3.4.3.4ZM73.1,43.1l-.4-.2h0s.4.2.4.2ZM73.4,27l.4-.2h0l-.4.2ZM66.5,25.7l-.4-.3h0l.4.3ZM66.2,45l-.4.3h0s.4-.3.4-.3ZM68.9,46.9c-1.2,0-2.4-.4-3.5-1.2l-.6.8c1.3.9,2.6,1.3,4.1,1.3v-1ZM65.4,45.8c-.4-.3-.9-.4-1.4-.3-.5,0-.9.4-1.2.8l.8.6c.2-.3.5-.4.6-.5.2,0,.4,0,.6.2l.6-.8ZM62.8,46.2c-.3.4-.5.5-.6.6l.5.9c.2-.1.5-.4.8-.8l-.7-.7ZM62.2,46.8c0,0-.1,0-.2,0v1c.3,0,.6-.1.8-.3l-.6-.8ZM62,46.9s0,0,0,0c0,0,0,0,0,0,0,0,0,0,0,0,0,0,0,0,0,0,0,0,0,0,0-.2l-1-.2c0,.3,0,.6,0,.9.2.3.5.4.8.4v-1ZM62.1,46.8c.1-.8.2-1.7.3-2.9h-1c0,1.1-.2,2-.3,2.7l1,.2ZM62.4,44c0-1.2,0-2.7,0-4.6h-1c0,1.9,0,3.4,0,4.6h1ZM62.5,39.3v-23h-1v23h1ZM62.5,16.3c0-.3,0-.6,0-.8,0-.2-.2-.5-.3-.7l-.7.7s0,0,0,.2c0,.1,0,.3,0,.6h1ZM62.1,14.8c-.3-.4-.7-.6-1.2-.6v1c.3,0,.4.2.4.2l.8-.6ZM60.9,14.2h-1c0-.1-.1.8-.1.8h1c0,.1.1-.8.1-.8ZM59.9,14.1c-.1,0-.1,0-.1,0,0,0,0,0,0,0,0,0,0,0,0,0h-1c0,.3,0,.5.3.7.2.2.4.3.7.3l.2-1ZM59.8,14s0,0,0,0c0,0,0,0,0,0,0,0,0,0,.1,0l-.2-1c-.2,0-.5.1-.7.3-.2.2-.3.5-.3.7h1ZM59.9,13.9c.9-.2,1.7-.4,2.3-.7l-.4-.9c-.6.2-1.3.5-2.2.6l.2,1ZM62.2,13.2c.6-.3,1.2-.5,1.6-.8l-.5-.9c-.4.2-.9.5-1.5.7l.4.9ZM63.9,12.4c.2-.2.4-.3.6-.3.2,0,.3,0,.3,0v-1c-.2,0-.5,0-.7.2-.2,0-.5.2-.7.4l.5.8ZM64.7,12s0,0,0,0c0,0,0,0,0,0,0,0,0,0,0,0,0,0,0,0,0,0,0,0,0,.1,0,.2h1c0-.3,0-.6-.2-.9-.2-.3-.5-.4-.8-.4v1ZM64.8,12.2v11.9h1v-11.9h-1ZM64.8,24.1c0,.2,0,.4.1.6.1.2.3.3.4.4l.4-.9s0,0,0,0c0,0,0,0,0,0,0,0,0,0,0,0h-1ZM65.4,25.1c.5.1.9-.1,1.2-.4l-.7-.7c0,0-.2.1-.2.2,0,0,0,0,0,0,0,0,0,0,0,0l-.3,1ZM66.6,24.7c1.3-1.3,2.7-2,4.2-2v-1c-1.8,0-3.4.8-4.9,2.3l.7.7ZM70.8,22.7c1.3,0,2.5.4,3.6,1.4l.7-.7c-1.2-1.1-2.6-1.6-4.2-1.6v1ZM74.4,24.1c1.1.9,1.9,2.2,2.5,3.8l.9-.3c-.7-1.8-1.6-3.2-2.8-4.2l-.6.8ZM76.9,27.9c.6,1.7,1,3.6,1,5.9h1c0-2.4-.3-4.5-1-6.3l-.9.4ZM77.9,33.8c0,2.6-.4,4.9-1.2,6.9l.9.4c.9-2.1,1.3-4.5,1.3-7.2h-1ZM76.7,40.7c-.8,2-1.9,3.5-3.3,4.6l.6.8c1.5-1.2,2.7-2.9,3.6-5l-.9-.4ZM73.4,45.3c-1.3,1.1-2.8,1.6-4.5,1.6v1c1.9,0,3.6-.6,5.1-1.8l-.6-.8ZM68.8,46.7c2,0,3.6-1.2,4.8-3.4l-.9-.5c-1,2-2.3,2.9-3.9,2.9v1ZM73.6,43.3c1.2-2.2,1.7-5.2,1.7-8.8h-1c0,3.5-.6,6.3-1.6,8.3l.9.5ZM75.3,34.5c0-3.3-.5-5.9-1.5-7.8l-.9.5c.9,1.6,1.4,4,1.4,7.3h1ZM73.8,26.7c-1-1.9-2.5-2.8-4.5-2.8v1c1.6,0,2.8.7,3.6,2.3l.9-.5ZM69.3,23.9c-1.2,0-2.3.5-3.2,1.5l.7.7c.7-.8,1.5-1.2,2.5-1.2v-1ZM66.1,25.4c-.9,1-1.3,2.4-1.3,4.1h1c0-1.5.4-2.6,1.1-3.4l-.7-.7ZM64.8,29.5v12.1h1v-12.1h-1ZM64.8,41.6c0,1.5.3,2.8,1.1,3.7l.8-.6c-.6-.7-.9-1.7-.9-3.1h-1ZM65.8,45.3c.8.9,1.8,1.4,3,1.4v-1c-.9,0-1.6-.3-2.2-1.1l-.8.6ZM85.6,45.8l-.3.4h0s.3-.4.3-.4ZM82.6,28.4l-.5-.2h0l.5.2ZM85.7,23.9l-.3-.4h0l.3.4ZM94.4,23.9l-.3.4h0s.3-.4.3-.4ZM97.5,28.4l.5-.2h0l-.5.2ZM97.5,41.2l-.5-.2h0s.5.2.5.2ZM94.5,45.8l.3.4h0s-.3-.4-.3-.4ZM90.1,46.9c-1.5,0-2.9-.5-4.1-1.5l-.6.8c1.4,1.2,3,1.7,4.7,1.7v-1ZM86,45.4c-1.2-1.1-2.2-2.5-2.9-4.4l-.9.4c.8,2,1.9,3.6,3.2,4.8l.7-.8ZM83,41.1c-.7-1.9-1.1-3.9-1.1-6.2h-1c0,2.4.4,4.6,1.2,6.6l.9-.4ZM81.9,34.8c0-2.3.4-4.4,1.1-6.2l-.9-.4c-.8,2-1.2,4.2-1.2,6.6h1ZM83,28.6c.7-1.8,1.7-3.3,3-4.3l-.6-.8c-1.4,1.2-2.5,2.8-3.3,4.7l.9.4ZM86,24.3c1.2-1,2.6-1.6,4-1.6v-1c-1.7,0-3.3.6-4.7,1.8l.6.8ZM90.1,22.7c1.5,0,2.8.5,4,1.6l.7-.8c-1.4-1.2-2.9-1.8-4.7-1.8v1ZM94.1,24.3c1.2,1.1,2.2,2.5,3,4.3l.9-.4c-.8-1.9-1.9-3.5-3.3-4.7l-.6.8ZM97.1,28.6c.7,1.8,1.1,3.9,1.1,6.2h1c0-2.4-.4-4.6-1.2-6.6l-.9.4ZM98.2,34.8c0,2.3-.4,4.4-1.1,6.2l.9.4c.8-2,1.2-4.2,1.2-6.6h-1ZM97.1,41.1c-.7,1.9-1.7,3.3-2.9,4.4l.6.8c1.4-1.2,2.5-2.8,3.2-4.8l-.9-.4ZM94.2,45.4c-1.2,1-2.6,1.5-4.1,1.5v1c1.8,0,3.3-.6,4.7-1.7l-.6-.8ZM90.1,46.7c.9,0,1.8-.3,2.5-.8.7-.5,1.3-1.3,1.7-2.3.9-2,1.3-4.9,1.3-8.8h-1c0,3.8-.4,6.6-1.2,8.4-.4.9-.9,1.5-1.4,1.9-.5.4-1.2.6-1.9.6v1ZM95.5,34.8c0-3.8-.4-6.7-1.3-8.7-.4-1-1-1.8-1.7-2.3-.7-.5-1.6-.8-2.5-.8v1c.7,0,1.4.2,1.9.6.5.4,1,1,1.4,1.9.8,1.8,1.2,4.6,1.2,8.3h1ZM90.1,22.9c-.9,0-1.8.3-2.5.8-.7.5-1.3,1.3-1.7,2.3-.9,2-1.3,4.9-1.3,8.7h1c0-3.8.4-6.5,1.2-8.3.4-.9.9-1.5,1.4-1.9.5-.4,1.2-.6,1.9-.6v-1ZM84.6,34.8c0,3.8.4,6.8,1.3,8.8.4,1,1,1.8,1.7,2.3.7.5,1.6.8,2.5.8v-1c-.7,0-1.3-.2-1.9-.6-.5-.4-1-1-1.4-1.9-.8-1.8-1.2-4.6-1.2-8.4h-1ZM105.8,46.9l-.2.5h0l.2-.5ZM104,45.2l-.4.3h0l.4-.3ZM103,24.2l-.4.3h0s0,0,0,0l.4-.3ZM102.1,23.9v.5c0,0,0,0,0,0h0s0-.5,0-.5ZM101.2,23.8v.5c0,0,0-.5,0-.5ZM107.3,44.3l-.4.3h0s0,0,0,0l.4-.3ZM112.3,44.4l.3.4h0s-.3-.4-.3-.4ZM114.2,42.2l-.4-.2h0s.5.2.5.2ZM114.6,24.2l-.4.3h0s0,0,0,0l.4-.3ZM113.7,23.9v.5c0,0,0,0,0,0h0s0-.5,0-.5ZM118.4,43.1l-.4.3h0s0,0,0,0l.4-.4ZM119.3,43.4v.5h0v-.5ZM120.4,43.6v.5c0,0,0,0,0,0h0s0-.5,0-.5ZM120.2,44.6v.5c0,0,0,0,0,0h0s0-.5,0-.5ZM117.8,45.4l-.3-.4h0s.3.4.3.4ZM116.3,46.8l.4.4h0s0,0,0,0l-.4-.3ZM114.8,44l-.2.5h0s0,0,0,0v-.5ZM114.3,44.2l-.4-.4h0l.4.4ZM111.1,46.7l-.2-.4h0s.2.4.2.4ZM108.1,46.9c-.7,0-1.4-.2-2.1-.5l-.4.9c.8.4,1.6.6,2.5.6v-1ZM106,46.5c-.6-.3-1.2-.8-1.6-1.5l-.8.5c.5.8,1.2,1.5,2,1.9l.4-.9ZM104.4,45c-.4-.7-.6-1.6-.6-2.8h-1c0,1.3.2,2.5.8,3.3l.8-.5ZM103.8,42.2v-16.7h-1v16.7h1ZM103.8,25.4c0-.6,0-1.2-.4-1.5l-.8.7c0,0,.2.3.2.9h1ZM103.4,24c-.3-.4-.8-.6-1.3-.6v1c.3,0,.4.1.5.2l.8-.6ZM102.1,23.4h-.8c0,0-.1.9-.1.9h.8c0,0,.1-.9.1-.9ZM101.3,23.3c-.2,0-.3,0-.4-.1,0,0,0,0,0,0,0,0,0,0,0,0h-1c0,.3.1.6.4.8.2.2.5.3.9.3v-1ZM100.9,23.1s0,0,0,0c0,0,0,0,0,0,0,0,.1,0,.4,0v-1c-.3,0-.7,0-1,.2-.3.2-.4.5-.4.9h1ZM101.3,23h4.5v-1h-4.5v1ZM105.8,23c0,0,.1,0,.2,0,0,0,0,0,0,0,0,0,0,0,0,0s0,0,0,0c0,0,0,0,0,0,0,0,0,0,0,.2h1c0-.3,0-.6-.3-.9-.2-.2-.6-.3-.9-.3v1ZM106,23.2v17.9h1v-17.9h-1ZM106,41.1c0,1.5.3,2.7.9,3.5l.8-.6c-.4-.5-.7-1.4-.7-2.8h-1ZM107,44.7c.7.7,1.6,1.1,2.7,1.1v-1c-.9,0-1.5-.3-2-.8l-.7.7ZM109.7,45.7c1.1,0,2.1-.3,2.9-.9l-.6-.8c-.7.5-1.5.7-2.4.7v1ZM112.6,44.8c.8-.6,1.5-1.4,2-2.4l-.9-.4c-.4.9-1,1.5-1.7,2.1l.6.8ZM114.6,42.4c.5-1,.8-2.1.8-3.3h-1c0,1-.2,2-.7,2.9l.9.4ZM115.4,39v-13.6h-1v13.6h1ZM115.4,25.4c0-.6,0-1.2-.4-1.5l-.8.7c0,0,.2.3.2.9h1ZM115,24c-.3-.4-.8-.6-1.3-.6v1c.3,0,.4.1.5.2l.8-.6ZM113.7,23.4h-.8c0,0-.1.9-.1.9h.8c0,0,.1-.9.1-.9ZM112.9,23.3c-.2,0-.3,0-.4-.1,0,0,0,0,0,0,0,0,0,0,0,0h-1c0,.3.1.6.4.8.2.2.5.3.9.3v-1ZM112.5,23.1s0,0,0,0c0,0,0,0,0,0,0,0,.1,0,.4,0v-1c-.3,0-.7,0-1,.2-.3.2-.4.5-.4.9h1ZM113,23h4.5v-1h-4.5v1ZM117.4,23c0,0,.1,0,.2,0,0,0,0,0,0,0,0,0,0,0,0,0s0,0,0,0c0,0,0,0,0,0,0,0,0,0,0,.2h1c0-.3,0-.6-.3-.9-.2-.2-.6-.3-.9-.3v1ZM117.6,23.2v18.6h1v-18.6h-1ZM117.6,41.9c0,.6,0,1.1.3,1.5l.8-.6c0,0-.1-.3-.1-.9h-1ZM118,43.4c.3.3.8.5,1.2.5v-1c-.3,0-.5-.2-.5-.2l-.7.7ZM119.3,43.9h1c0,.1.1-.8.1-.8h-1c0-.1-.1.8-.1.8ZM120.3,44.1c0,0,.1,0,.2,0,0,0,0,0,0,0,0,0,0,0,0,0,0,0,0,0,0,0h1c0-.3-.1-.5-.4-.7-.2-.2-.5-.2-.7-.2v1ZM120.5,44.1s0,0,0,0c0,0,0,0,0,0,0,0-.1,0-.4.1l.2,1c.3,0,.6-.1.8-.3.2-.2.4-.4.4-.8h-1ZM120.1,44.2c-1,.1-1.9.4-2.6.8l.5.8c.5-.3,1.3-.6,2.2-.7v-1ZM117.5,45c-.6.4-1.2.9-1.6,1.5l.8.6c.4-.5.9-.9,1.4-1.3l-.6-.8ZM115.9,46.5c-.1.1-.2.2-.3.2,0,0,0,0,0,0v1c.2,0,.4,0,.6-.2.2-.1.3-.2.5-.4l-.7-.7ZM115.6,46.7s0,0,0,0c0,0,0,0,0,0,0,0,0,0,0,0,0,0,0,0,0,0,0,0,0,0,0-.1h-1c0,.2,0,.5.2.7.2.2.5.3.7.3v-1ZM115.6,46.7v-2.2h-1v2.2h1ZM115.6,44.5c0-.2,0-.4-.2-.6-.1-.2-.3-.3-.5-.3l-.2,1s0,0,0,0c0,0,0,0,0,0,0,0,0,0,0,0,0,0,0,0,0,0h1ZM115,43.6c-.4-.2-.8,0-1.1.3l.7.7s0,0,0,0c0,0,0,0,0,0,0,0,0,0,0,0s0,0,0,0l.4-.9ZM113.9,43.9c-1.2,1.2-2.2,2-3,2.4l.5.9c1-.5,2.1-1.4,3.3-2.6l-.7-.7ZM110.9,46.3c-.8.4-1.7.7-2.8.7v1c1.2,0,2.3-.3,3.3-.8l-.5-.9ZM126,46.3l-.4.3h0s0,0,0,0l.4-.3ZM122.6,22.6l.3.4h0s-.3-.4-.3-.4ZM125.2,20.3l.4.3h0s-.4-.3-.4-.3ZM126.8,16.8l-.5-.2h0s.5.2.5.2ZM128.5,44.1l-.4.2h0s0,0,0,0l.4-.3ZM131.4,43.7l-.4-.3h0s0,0,0,0l.4.3ZM132.3,40.4h-.5c0,0,0,0,0,0h0s.5,0,.5,0ZM133.5,40.5h.5s0,0,0,0h0s-.5,0-.5,0ZM131.9,45.8l-.4-.3h0s.4.3.4.3ZM128.8,46.9c-1,0-1.8-.3-2.4-1l-.7.7c.8.9,1.9,1.3,3.1,1.3v-1ZM126.3,45.9c-.6-.7-.9-1.8-.9-3.6h-1c0,1.8.4,3.3,1.2,4.2l.8-.7ZM125.4,42.4v-18h-1v18h1ZM125.4,24.4c0-.3,0-.6-.3-.8-.2-.2-.5-.3-.8-.3v1c0,0,0,0,0,0,0,0,0,0,0,0,0,0,0,0,0,0,0,0,0,0,0,0h1ZM124.3,23.4h-1.4v1h1.4v-1ZM122.9,23.4c0,0-.2,0-.2,0,0,0,0,0,0,0,0,0,0,0,0,0,0,0,0,0,0,0h-1c0,.3.1.6.4.8.3.2.6.2.9.2v-1ZM122.7,23.3s0-.1.2-.3l-.6-.8c-.4.2-.7.6-.7,1.1h1ZM122.9,23c1.1-.8,2-1.6,2.7-2.5l-.8-.6c-.6.8-1.4,1.5-2.4,2.2l.6.8ZM125.6,20.6c.7-.9,1.3-2.1,1.8-3.6l-1-.3c-.5,1.4-1,2.6-1.6,3.4l.8.6ZM127.3,16.9c.1-.3.2-.5.3-.6,0,0,0,0,0,0v-1c-.4,0-.6.2-.8.4-.2.2-.3.6-.5.9l.9.3ZM127.7,16.3s0,0,0,0c0,0,0,0,0,0,0,0,0,0,0,0,0,0,0,0,0,0,0,0,0,.1,0,.2h1c0-.3,0-.6-.2-.9-.2-.3-.5-.4-.8-.4v1ZM127.7,16.5v5.3h1v-5.3h-1ZM127.7,21.8c0,.3,0,.6.3.9.2.2.6.3.9.3v-1c-.1,0-.2,0-.2,0,0,0,0,0,0-.2h-1ZM128.9,23h3.1v-1h-3.1v1ZM132,23c.2,0,.2,0,.2,0,0,0,0,0,0,0,0,0,0,0,0,0,0,0,0,0,0,.1h1c0-.3,0-.6-.4-.9-.3-.2-.6-.3-.9-.3v1ZM132.2,23.2c0,0,0,.1,0,.1,0,0,0,0,0,0,0,0,0,0,0,0,0,0,0,0-.2,0v1c.3,0,.6,0,.9-.3.3-.2.4-.6.4-.9h-1ZM132,23.4h-3.1v1h3.1v-1ZM128.9,23.4c-.3,0-.6,0-.9.3-.2.2-.3.6-.3.9h1c0-.1,0-.2,0-.2,0,0,0,0,.2,0v-1ZM127.7,24.5v17.9h1v-17.9h-1ZM127.7,42.4c0,.7.1,1.4.4,1.9l.9-.5c-.2-.3-.3-.8-.3-1.4h-1ZM128.1,44.4c.3.6,1,.8,1.7.8v-1c-.5,0-.7-.2-.8-.3l-.9.5ZM129.8,45.2c.9,0,1.6-.5,2.1-1.2l-.9-.5c-.3.6-.7.8-1.2.8v1ZM131.8,44c.5-.8.8-2,.9-3.5h-1c-.1,1.4-.4,2.4-.8,2.9l.8.6ZM132.8,40.5c0-.2,0-.2,0-.2,0,0,0,0,0,0,0,0,0,0,0,0v-1c-.3,0-.6,0-.8.3-.2.2-.3.5-.3.8h1ZM132.9,40.3s0,0,0,0c0,0,0,0,0,0,0,0,0,0,0,.2h1c0-.3,0-.6-.3-.9-.2-.3-.5-.4-.8-.4v1ZM133,40.5c0,2.4-.6,4.1-1.4,5l.8.6c1-1.2,1.6-3.1,1.7-5.6h-1ZM131.5,45.5c-.8,1-1.7,1.4-2.8,1.4v1c1.4,0,2.6-.6,3.6-1.8l-.8-.6Z"/>
      </g>
      <path id="orbit" class="cls-3" d="M138.8,13.6c14.7.4,24.5,3.7,26,9.6,3.1,12.2-29.8,31.2-73.5,42.4-43.7,11.3-81.7,10.5-84.8-1.7-1.8-7,8.2-16.2,25.4-24.9" stroke="url(#shimmer)" stroke-width="1" fill="none" />
      <path id="star_x5F_pink" class="cls-2" d="M7.2,56.6l.7,1.8c.1.3.4.6.7.7l1.8.7c.7.2.7,1.2,0,1.4l-1.8.7c-.3.1-.6.4-.7.7l-.7,1.8c-.2.7-1.2.7-1.4,0l-.7-1.8c-.1-.3-.4-.6-.7-.7l-1.8-.7c-.7-.2-.7-1.2,0-1.4l1.8-.7c.3-.1.6-.4.7-.7l.7-1.8c.2-.7,1.2-.7,1.4,0Z"/>
      <path id="star_x5F_purple" class="cls-4" d="M165.2,18.6l.7,1.8c.1.3.4.6.7.7l1.8.7c.7.2.7,1.2,0,1.4l-1.8.7c-.3.1-.6.4-.7.7l-.7,1.8c-.2.7-1.2.7-1.4,0l-.7-1.8c-.1-.3-.4-.6-.7-.7l-1.8-.7c-.7-.2-.7-1.2,0-1.4l1.8-.7c.3-.1.6-.4.7-.7l.7-1.8c.2-.7,1.2-.7,1.4,0Z"/>
    </g>
  </g>
</svg>