<svg width="11" height="11" viewBox="0 0 11 11" fill="none" xmlns="http://www.w3.org/2000/svg">
<path d="M6.20339 1.62126L6.86155 3.39993C6.98816 3.74208 7.25792 4.01184 7.60007 4.13845L9.37874 4.79661C10.0317 5.03823 10.0317 5.96177 9.37874 6.20339L7.60007 6.86155C7.25792 6.98816 6.98816 7.25792 6.86155 7.60007L6.20339 9.37874C5.96177 10.0317 5.03823 10.0317 4.79661 9.37874L4.13845 7.60007C4.01184 7.25792 3.74208 6.98816 3.39993 6.86155L1.62126 6.20339C0.968301 5.96177 0.968301 5.03823 1.62126 4.79661L3.39993 4.13845C3.74208 4.01184 4.01184 3.74208 4.13845 3.39993L4.79661 1.62126C5.03823 0.968301 5.96177 0.968301 6.20339 1.62126Z" fill="#FFDEE5" stroke="#474C62" stroke-width="0.5"/>
</svg>
