<svg width="191" height="69" viewBox="0 0 191 69" fill="none" xmlns="http://www.w3.org/2000/svg">
<path d="M163.413 36.452C162.677 36.452 161.893 36.356 161.061 36.164C160.229 36.004 159.557 35.796 159.045 35.54C158.757 35.38 158.613 35.108 158.613 34.724L158.469 29.348C158.469 28.804 158.677 28.532 159.093 28.532C159.445 28.532 159.685 28.788 159.813 29.3C160.357 31.572 161.013 33.124 161.781 33.956C162.581 34.788 163.541 35.204 164.661 35.204C165.589 35.204 166.357 34.852 166.965 34.148C167.573 33.412 167.877 32.404 167.877 31.124C167.877 29.844 167.525 28.708 166.821 27.716C166.117 26.724 164.933 25.636 163.269 24.452C161.605 23.332 160.389 22.212 159.621 21.092C158.853 19.94 158.469 18.692 158.469 17.348C158.469 15.524 159.109 14.052 160.389 12.932C161.669 11.812 163.365 11.252 165.477 11.252C166.117 11.252 166.741 11.332 167.349 11.492C167.957 11.62 168.501 11.844 168.981 12.164C169.269 12.356 169.413 12.612 169.413 12.932L169.509 18.212C169.509 18.692 169.317 18.932 168.933 18.932C168.709 18.932 168.549 18.868 168.453 18.74C168.357 18.58 168.277 18.388 168.213 18.164C167.573 16.084 166.933 14.644 166.293 13.844C165.653 13.012 164.869 12.596 163.941 12.596C163.109 12.596 162.421 12.884 161.877 13.46C161.333 14.036 161.061 14.756 161.061 15.62C161.061 16.74 161.397 17.716 162.069 18.548C162.741 19.38 163.957 20.404 165.717 21.62C167.317 22.772 168.517 24.02 169.317 25.364C170.149 26.676 170.565 28.116 170.565 29.684C170.565 31.732 169.909 33.38 168.597 34.628C167.285 35.844 165.557 36.452 163.413 36.452Z" fill="#FFEAEF"/>
<path d="M149.279 36.452C147.743 36.452 146.366 35.94 145.15 34.916C143.934 33.892 142.959 32.452 142.223 30.596C141.519 28.708 141.167 26.532 141.167 24.068C141.167 21.54 141.535 19.316 142.271 17.396C143.007 15.476 144.015 13.972 145.295 12.884C146.575 11.796 147.998 11.252 149.566 11.252C151.454 11.252 152.975 12.036 154.127 13.604C155.311 15.14 155.903 17.652 155.903 21.14C155.903 22.196 155.502 22.724 154.702 22.724H145.582C144.942 22.724 144.622 23.092 144.622 23.828C144.622 27.22 145.118 29.764 146.11 31.46C147.102 33.156 148.367 34.004 149.903 34.004C151.119 34.004 152.111 33.572 152.879 32.708C153.647 31.844 154.271 30.388 154.751 28.34C154.847 27.988 155.054 27.812 155.374 27.812C155.758 27.812 155.903 28.132 155.807 28.772C155.295 31.62 154.478 33.62 153.358 34.772C152.238 35.892 150.879 36.452 149.279 36.452ZM145.438 21.524H150.286C151.822 21.524 152.59 20.724 152.59 19.124C152.59 17.044 152.335 15.412 151.823 14.228C151.311 13.044 150.543 12.452 149.519 12.452C148.271 12.452 147.215 13.172 146.351 14.612C145.519 16.052 144.974 18.1 144.718 20.756C144.654 21.268 144.894 21.524 145.438 21.524Z" fill="#FFEAEF"/>
<path d="M126.813 36.452C125.405 36.452 124.141 35.972 123.021 35.012C121.933 34.02 121.085 32.66 120.477 30.932C119.869 29.172 119.565 27.14 119.565 24.836C119.565 22.148 119.981 19.796 120.813 17.78C121.645 15.732 122.797 14.132 124.269 12.98C125.741 11.828 127.405 11.252 129.261 11.252C129.709 11.252 130.157 11.3 130.605 11.396C131.053 11.46 131.485 11.588 131.901 11.78C132.413 12.036 132.669 11.924 132.669 11.444V5.3C132.669 4.724 132.573 4.324 132.381 4.1C132.221 3.876 131.917 3.748 131.469 3.716L130.221 3.572C129.869 3.508 129.693 3.316 129.693 2.996C129.693 2.676 129.869 2.484 130.221 2.42C131.245 2.228 132.061 2.004 132.669 1.748C133.309 1.492 133.837 1.236 134.253 0.98C134.765 0.66 135.149 0.5 135.405 0.5C135.757 0.5 135.933 0.756 135.933 1.268V31.46C135.933 32.804 136.269 33.476 136.941 33.476C137.357 33.476 137.741 33.204 138.093 32.66C138.445 32.084 138.621 31.124 138.621 29.78C138.621 29.268 138.829 29.012 139.245 29.012C139.629 29.012 139.821 29.284 139.821 29.828C139.821 32.164 139.421 33.86 138.621 34.916C137.821 35.94 136.909 36.452 135.885 36.452C134.957 36.452 134.253 36.148 133.773 35.54C133.293 34.9 132.973 34.148 132.813 33.284C132.781 33.028 132.669 32.9 132.477 32.9C132.285 32.868 132.109 32.98 131.949 33.236C131.053 34.484 130.237 35.332 129.501 35.78C128.765 36.228 127.869 36.452 126.813 36.452ZM127.869 34.244C128.701 34.244 129.469 33.972 130.173 33.428C130.909 32.852 131.501 32.084 131.949 31.124C132.429 30.164 132.669 29.092 132.669 27.908V17.108C132.669 15.668 132.333 14.532 131.661 13.7C131.021 12.868 130.173 12.452 129.117 12.452C127.325 12.452 125.869 13.508 124.749 15.62C123.661 17.7 123.117 20.548 123.117 24.164C123.117 27.46 123.533 29.972 124.365 31.7C125.229 33.396 126.397 34.244 127.869 34.244Z" fill="#FFEAEF"/>
<path d="M108.275 36.452C106.643 36.452 105.171 35.908 103.859 34.82C102.579 33.7 101.555 32.18 100.787 30.26C100.019 28.34 99.6353 26.196 99.6353 23.828C99.6353 21.46 100.019 19.332 100.787 17.444C101.555 15.556 102.595 14.052 103.907 12.932C105.219 11.812 106.675 11.252 108.275 11.252C109.907 11.252 111.363 11.812 112.643 12.932C113.955 14.052 114.995 15.556 115.763 17.444C116.531 19.332 116.915 21.46 116.915 23.828C116.915 26.196 116.531 28.34 115.763 30.26C115.027 32.18 114.003 33.7 112.691 34.82C111.379 35.908 109.907 36.452 108.275 36.452ZM108.275 35.252C111.603 35.252 113.267 31.444 113.267 23.828C113.267 16.244 111.603 12.452 108.275 12.452C104.947 12.452 103.283 16.244 103.283 23.828C103.283 31.444 104.947 35.252 108.275 35.252Z" fill="#FFEAEF"/>
<path d="M90.0536 36.452C89.3176 36.452 88.5336 36.356 87.7016 36.164C86.8696 36.004 86.1976 35.796 85.6856 35.54C85.3976 35.38 85.2536 35.108 85.2536 34.724L85.1096 29.348C85.1096 28.804 85.3176 28.532 85.7336 28.532C86.0856 28.532 86.3256 28.788 86.4536 29.3C86.9976 31.572 87.6536 33.124 88.4216 33.956C89.2216 34.788 90.1816 35.204 91.3016 35.204C92.2296 35.204 92.9976 34.852 93.6056 34.148C94.2136 33.412 94.5176 32.404 94.5176 31.124C94.5176 29.844 94.1656 28.708 93.4616 27.716C92.7576 26.724 91.5736 25.636 89.9096 24.452C88.2456 23.332 87.0296 22.212 86.2616 21.092C85.4936 19.94 85.1096 18.692 85.1096 17.348C85.1096 15.524 85.7496 14.052 87.0296 12.932C88.3096 11.812 90.0056 11.252 92.1176 11.252C92.7576 11.252 93.3816 11.332 93.9896 11.492C94.5976 11.62 95.1416 11.844 95.6216 12.164C95.9096 12.356 96.0536 12.612 96.0536 12.932L96.1496 18.212C96.1496 18.692 95.9576 18.932 95.5736 18.932C95.3496 18.932 95.1896 18.868 95.0936 18.74C94.9976 18.58 94.9176 18.388 94.8536 18.164C94.2136 16.084 93.5736 14.644 92.9336 13.844C92.2936 13.012 91.5096 12.596 90.5816 12.596C89.7496 12.596 89.0616 12.884 88.5176 13.46C87.9736 14.036 87.7016 14.756 87.7016 15.62C87.7016 16.74 88.0376 17.716 88.7096 18.548C89.3816 19.38 90.5976 20.404 92.3576 21.62C93.9576 22.772 95.1576 24.02 95.9576 25.364C96.7896 26.676 97.2056 28.116 97.2056 29.684C97.2056 31.732 96.5496 33.38 95.2376 34.628C93.9256 35.844 92.1976 36.452 90.0536 36.452Z" fill="#FFEAEF"/>
<path d="M78.5503 6.98C77.8783 6.98 77.3023 6.74 76.8223 6.26C76.3743 5.78 76.1503 5.172 76.1503 4.436C76.1503 3.7 76.3743 3.108 76.8223 2.66C77.3023 2.18 77.8783 1.94 78.5503 1.94C79.2223 1.94 79.7823 2.18 80.2303 2.66C80.6783 3.108 80.9023 3.7 80.9023 4.436C80.9023 5.172 80.6783 5.78 80.2303 6.26C79.7823 6.74 79.2223 6.98 78.5503 6.98ZM74.5183 36.02C74.0383 36.02 73.7983 35.844 73.7983 35.492C73.7983 35.204 74.0063 35.012 74.4223 34.916L74.9983 34.82C75.7983 34.692 76.3103 34.5 76.5343 34.244C76.7583 33.956 76.8703 33.476 76.8703 32.804V16.676C76.8703 16.1 76.7743 15.716 76.5823 15.524C76.4223 15.3 76.1183 15.156 75.6703 15.092L74.6623 14.948C74.2463 14.916 74.0383 14.74 74.0383 14.42C74.0383 14.164 74.2943 13.988 74.8063 13.892C75.7983 13.732 76.5983 13.476 77.2063 13.124C77.8143 12.772 78.4063 12.34 78.9823 11.828C79.2703 11.54 79.5103 11.396 79.7023 11.396C79.9903 11.396 80.1343 11.588 80.1343 11.972V32.804C80.1343 33.476 80.2303 33.956 80.4223 34.244C80.6143 34.532 80.9823 34.708 81.5263 34.772L82.7263 34.916C83.0783 34.98 83.2543 35.156 83.2543 35.444C83.2543 35.828 83.0143 36.02 82.5343 36.02H74.5183Z" fill="#FFEAEF"/>
<path d="M53.0462 45.86C52.5662 45.86 52.3262 45.684 52.3262 45.332C52.3262 44.98 52.5342 44.788 52.9502 44.756L53.6222 44.66C54.2942 44.564 54.7262 44.372 54.9182 44.084C55.1422 43.796 55.2542 43.316 55.2542 42.644V16.676C55.2542 16.1 55.1582 15.716 54.9662 15.524C54.8062 15.3 54.5022 15.156 54.0542 15.092L53.0462 14.948C52.6302 14.916 52.4222 14.74 52.4222 14.42C52.4222 14.164 52.6782 13.988 53.1902 13.892C54.1822 13.732 54.9342 13.476 55.4462 13.124C55.9902 12.772 56.5502 12.34 57.1262 11.828C57.4142 11.54 57.6542 11.396 57.8462 11.396C58.1342 11.396 58.2782 11.588 58.2782 11.972V13.46C58.2782 13.684 58.3742 13.844 58.5662 13.94C58.7582 14.004 58.9822 13.908 59.2382 13.652L59.7662 13.124C60.4062 12.484 61.0622 12.02 61.7342 11.732C62.4062 11.412 63.1742 11.252 64.0382 11.252C65.5102 11.252 66.8062 11.748 67.9262 12.74C69.0782 13.7 69.9742 15.044 70.6142 16.772C71.2862 18.5 71.6222 20.532 71.6222 22.868C71.6222 25.524 71.2062 27.876 70.3742 29.924C69.5422 31.972 68.3902 33.572 66.9182 34.724C65.4782 35.876 63.8142 36.452 61.9262 36.452C60.9662 36.452 60.1182 36.276 59.3822 35.924C58.8062 35.668 58.5182 35.844 58.5182 36.452V42.644C58.5182 43.316 58.6142 43.764 58.8062 43.988C59.0302 44.244 59.4782 44.42 60.1502 44.516L61.9262 44.756C62.2782 44.82 62.4542 44.996 62.4542 45.284C62.4542 45.668 62.2142 45.86 61.7342 45.86H53.0462ZM62.0702 35.252C63.8622 35.252 65.3022 34.196 66.3902 32.084C67.5102 29.972 68.0702 27.124 68.0702 23.54C68.0702 20.244 67.5902 17.732 66.6302 16.004C65.6702 14.276 64.3102 13.412 62.5502 13.412C61.4622 13.412 60.5182 13.86 59.7182 14.756C58.9182 15.652 58.5182 16.9 58.5182 18.5V30.596C58.5182 32.036 58.8382 33.172 59.4782 34.004C60.1502 34.836 61.0142 35.252 62.0702 35.252Z" fill="#FFEAEF"/>
<path d="M31.6321 36.02C31.1521 36.02 30.9121 35.844 30.9121 35.492C30.9121 35.204 31.1201 35.012 31.5361 34.916L32.6401 34.724C33.3121 34.596 33.7441 34.42 33.9361 34.196C34.1601 33.972 34.2721 33.524 34.2721 32.852V4.62799C34.2721 3.95599 34.1601 3.50799 33.9361 3.28399C33.7441 3.05999 33.3121 2.88399 32.6401 2.75599L31.5361 2.56399C31.1201 2.46799 30.9121 2.27599 30.9121 1.98799C30.9121 1.63599 31.1521 1.45999 31.6321 1.45999H47.7601C48.4961 1.45999 48.8961 1.82799 48.9601 2.56399L49.3441 10.532C49.4081 11.076 49.2001 11.348 48.7201 11.348C48.3361 11.348 48.1121 11.14 48.0481 10.724L47.7601 8.94799C47.4081 6.77199 46.6881 5.18799 45.6001 4.19599C44.5121 3.17199 43.0081 2.65999 41.0881 2.65999C39.8081 2.65999 38.9121 2.85199 38.4001 3.23599C37.9201 3.58799 37.6801 4.22799 37.6801 5.15599V16.724C37.6801 17.172 37.9041 17.396 38.3521 17.396H40.7521C42.1601 17.396 43.0241 16.644 43.3441 15.14L43.8241 12.74C43.9521 12.26 44.2241 12.052 44.6401 12.116C44.9921 12.18 45.1681 12.452 45.1681 12.932V23.732C45.1681 24.212 44.9921 24.484 44.6401 24.548C44.2241 24.612 43.9521 24.404 43.8241 23.924L43.3441 21.572C43.1201 20.452 42.8001 19.716 42.3841 19.364C42.0001 19.012 41.4401 18.836 40.7041 18.836H38.3521C37.9041 18.836 37.6801 19.06 37.6801 19.508V31.556C37.6801 32.708 37.9681 33.54 38.5441 34.052C39.1521 34.564 40.2401 34.82 41.8081 34.82C43.4081 34.82 44.7681 34.42 45.8881 33.62C47.0401 32.788 47.8401 31.252 48.2881 29.012L48.8641 26.18C48.9601 25.764 49.2001 25.556 49.5841 25.556C50.0321 25.556 50.2241 25.828 50.1601 26.372L49.6801 34.916C49.6161 35.652 49.2161 36.02 48.4801 36.02H31.6321Z" fill="#FFEAEF"/>
<path fill-rule="evenodd" clip-rule="evenodd" d="M161.061 36.164C161.893 36.356 162.677 36.452 163.413 36.452C165.557 36.452 167.285 35.844 168.597 34.628C169.909 33.38 170.565 31.732 170.565 29.684C170.565 28.116 170.149 26.676 169.317 25.364C168.517 24.02 167.317 22.772 165.717 21.62C163.957 20.404 162.741 19.38 162.069 18.548C161.397 17.716 161.061 16.74 161.061 15.62C161.061 14.756 161.333 14.036 161.877 13.46C162.421 12.884 163.109 12.596 163.941 12.596C164.869 12.596 165.653 13.012 166.293 13.844C166.933 14.644 167.573 16.084 168.213 18.164C168.277 18.388 168.357 18.58 168.453 18.74C168.549 18.868 168.709 18.932 168.933 18.932C169.317 18.932 169.509 18.692 169.509 18.212L169.413 12.932C169.413 12.612 169.269 12.356 168.981 12.164C168.501 11.844 167.957 11.62 167.349 11.492C166.741 11.332 166.117 11.252 165.477 11.252C163.365 11.252 161.669 11.812 160.389 12.932C159.109 14.052 158.469 15.524 158.469 17.348C158.469 18.692 158.853 19.94 159.621 21.092C160.389 22.212 161.605 23.332 163.269 24.452C164.933 25.636 166.117 26.724 166.821 27.716C167.525 28.708 167.877 29.844 167.877 31.124C167.877 32.404 167.573 33.412 166.965 34.148C166.357 34.852 165.589 35.204 164.661 35.204C163.541 35.204 162.581 34.788 161.781 33.956C161.013 33.124 160.357 31.572 159.813 29.3C159.685 28.788 159.445 28.532 159.093 28.532C158.677 28.532 158.469 28.804 158.469 29.348L158.613 34.724C158.613 35.108 158.757 35.38 159.045 35.54C159.557 35.796 160.229 36.004 161.061 36.164ZM160.958 36.6533C160.104 36.4885 159.387 36.2699 158.822 35.9872L158.812 35.9824L158.802 35.9771C158.329 35.7139 158.115 35.2579 158.113 34.7317C158.113 34.7291 158.113 34.7266 158.113 34.724L157.969 29.348C157.969 29.0264 158.028 28.6935 158.228 28.4323C158.447 28.1456 158.767 28.032 159.093 28.032C159.407 28.032 159.687 28.1528 159.902 28.382C160.102 28.5957 160.223 28.8785 160.298 29.1787L160.299 29.1836C160.84 31.4396 161.471 32.8808 162.145 33.6133C162.853 34.348 163.683 34.704 164.661 34.704C165.442 34.704 166.07 34.4169 166.583 33.8256C167.093 33.2059 167.377 32.3249 167.377 31.124C167.377 29.9419 167.054 28.9082 166.413 28.0054C165.757 27.0807 164.627 26.0321 162.985 24.8632C161.294 23.7244 160.024 22.5641 159.209 21.3748L159.205 21.3694C158.384 20.1378 157.969 18.7938 157.969 17.348C157.969 15.3916 158.663 13.7782 160.06 12.5557C161.452 11.338 163.274 10.752 165.477 10.752C166.155 10.752 166.818 10.8363 167.464 11.0053C168.125 11.1458 168.725 11.3922 169.259 11.748C169.671 12.0227 169.911 12.4264 169.913 12.9266C169.913 12.9284 169.913 12.9302 169.913 12.932L170.009 18.212C170.009 18.5054 169.953 18.818 169.756 19.0643C169.541 19.332 169.236 19.432 168.933 19.432C168.619 19.432 168.278 19.3393 168.053 19.04L168.038 19.0194L168.024 18.9972C167.902 18.7932 167.807 18.5607 167.734 18.3066C167.097 16.2369 166.479 14.877 165.903 14.1563L165.897 14.1489C165.337 13.4215 164.692 13.096 163.941 13.096C163.239 13.096 162.685 13.3328 162.241 13.8033C161.793 14.2777 161.561 14.871 161.561 15.62C161.561 16.6315 161.862 17.4952 162.458 18.2338C163.083 19.0076 164.25 19.9984 166.001 21.2086L166.009 21.2142C167.649 22.3945 168.9 23.6884 169.743 25.1021C170.624 26.4934 171.065 28.0244 171.065 29.684C171.065 31.8492 170.366 33.6351 168.942 34.9903L168.937 34.9947C167.515 36.3128 165.657 36.952 163.413 36.952C162.637 36.952 161.818 36.8511 160.958 36.6533Z" fill="#474C62"/>
<path fill-rule="evenodd" clip-rule="evenodd" d="M145.15 34.916C146.367 35.94 147.743 36.452 149.279 36.452C150.879 36.452 152.239 35.892 153.358 34.772C154.479 33.62 155.295 31.62 155.807 28.772C155.903 28.132 155.758 27.812 155.374 27.812C155.055 27.812 154.847 27.988 154.751 28.34C154.271 30.388 153.646 31.844 152.879 32.708C152.111 33.572 151.118 34.004 149.903 34.004C148.367 34.004 147.103 33.156 146.11 31.46C145.118 29.764 144.622 27.22 144.622 23.828C144.622 23.092 144.942 22.724 145.582 22.724H154.702C155.503 22.724 155.903 22.196 155.903 21.14C155.903 17.652 155.311 15.14 154.127 13.604C152.975 12.036 151.454 11.252 149.566 11.252C147.998 11.252 146.575 11.796 145.295 12.884C144.015 13.972 143.007 15.476 142.271 17.396C141.535 19.316 141.167 21.54 141.167 24.068C141.167 26.532 141.519 28.708 142.223 30.596C142.959 32.452 143.935 33.892 145.15 34.916ZM150.286 21.524H145.438C144.895 21.524 144.655 21.268 144.718 20.756C144.975 18.1 145.519 16.052 146.351 14.612C147.215 13.172 148.271 12.452 149.519 12.452C150.543 12.452 151.311 13.044 151.823 14.228C152.335 15.412 152.59 17.044 152.59 19.124C152.59 20.724 151.823 21.524 150.286 21.524ZM146.781 14.8656C147.59 13.5202 148.506 12.952 149.519 12.952C149.927 12.952 150.266 13.0674 150.557 13.292C150.856 13.5219 151.131 13.8875 151.364 14.4265C151.837 15.5211 152.09 17.0754 152.09 19.124C152.09 19.8519 151.915 20.3051 151.654 20.5777C151.396 20.8465 150.972 21.024 150.286 21.024H145.438C145.294 21.024 145.235 20.9998 145.218 20.9903C145.212 20.9725 145.201 20.9234 145.215 20.818L145.215 20.818L145.216 20.804C145.469 18.1833 146.002 16.2172 146.781 14.8656ZM145.222 20.9986C145.221 20.9986 145.221 20.9977 145.22 20.9954C145.221 20.9974 145.222 20.9986 145.222 20.9986ZM141.754 30.7707L141.754 30.7707C141.025 28.8159 140.667 26.5788 140.667 24.068C140.667 21.4924 141.041 19.2056 141.804 17.217C142.563 15.2361 143.614 13.6562 144.971 12.503C146.334 11.3441 147.871 10.752 149.566 10.752C151.617 10.752 153.284 11.6148 154.526 13.3033C155.811 14.9733 156.403 17.6226 156.403 21.14C156.403 21.7169 156.296 22.2409 156.001 22.6299C155.687 23.0451 155.223 23.224 154.702 23.224H145.582C145.359 23.224 145.277 23.285 145.24 23.3281C145.191 23.3846 145.122 23.5213 145.122 23.828C145.122 27.1876 145.617 29.6254 146.542 31.2076C147.473 32.7996 148.595 33.504 149.903 33.504C150.984 33.504 151.837 33.1269 152.505 32.3758C153.189 31.6063 153.789 30.2493 154.264 28.2259L154.266 28.2171L154.268 28.2084C154.334 27.9673 154.452 27.7345 154.656 27.5623C154.865 27.385 155.118 27.312 155.374 27.312C155.54 27.312 155.716 27.3467 155.877 27.4444C156.041 27.5439 156.155 27.6875 156.226 27.8468C156.359 28.1412 156.353 28.4999 156.301 28.8462L156.3 28.8533L156.299 28.8605C155.781 31.7382 154.943 33.8598 153.717 35.1205L153.712 35.1256C152.497 36.3404 151.01 36.952 149.279 36.952C147.62 36.952 146.131 36.3955 144.828 35.2985C143.535 34.2093 142.517 32.6939 141.758 30.7803L141.754 30.7707Z" fill="#474C62"/>
<path fill-rule="evenodd" clip-rule="evenodd" d="M122.69 35.3866L122.684 35.3815C121.522 34.3218 120.634 32.8852 120.006 31.098L120.005 31.0953C119.375 29.272 119.065 27.1829 119.065 24.836C119.065 22.0978 119.489 19.679 120.351 17.5904C121.209 15.4771 122.409 13.8009 123.961 12.5862C125.52 11.3659 127.293 10.752 129.261 10.752C129.74 10.752 130.217 10.8027 130.693 10.9035C131.184 10.9753 131.657 11.1164 132.111 11.326L132.118 11.3293L132.125 11.3328C132.14 11.3406 132.155 11.3477 132.169 11.3542V5.3C132.169 4.74559 132.07 4.5051 132.002 4.4254L131.987 4.40861L131.974 4.39062C131.943 4.34702 131.825 4.24271 131.434 4.21473L131.423 4.21395L130.148 4.06684L130.132 4.06393C129.888 4.01959 129.642 3.91956 129.457 3.71786C129.266 3.5097 129.193 3.25111 129.193 2.996C129.193 2.74088 129.266 2.4823 129.457 2.27414C129.641 2.07284 129.887 1.97281 130.13 1.92833C131.136 1.73964 131.913 1.52374 132.475 1.28718L132.483 1.28368C133.106 1.03461 133.606 0.791047 133.99 0.554938C134.259 0.386798 134.508 0.252304 134.733 0.158462C134.952 0.0669899 135.183 0 135.405 0C135.72 0 136.018 0.125336 136.213 0.408735C136.385 0.658357 136.433 0.970228 136.433 1.268V31.46C136.433 32.1065 136.517 32.5169 136.632 32.7484C136.687 32.8571 136.739 32.9086 136.778 32.934C136.813 32.9573 136.861 32.976 136.941 32.976C137.107 32.976 137.358 32.874 137.67 32.394C137.944 31.9411 138.121 31.1018 138.121 29.78C138.121 29.4692 138.182 29.1433 138.389 28.8887C138.612 28.6142 138.929 28.512 139.245 28.512C139.571 28.512 139.881 28.6371 140.086 28.9277C140.268 29.1863 140.321 29.5124 140.321 29.828C140.321 32.1991 139.919 34.0304 139.02 35.2179L139.015 35.2239C138.148 36.3334 137.103 36.952 135.885 36.952C134.838 36.952 133.975 36.6021 133.381 35.8498L133.373 35.8401C132.872 35.1724 132.534 34.3999 132.352 33.5317C131.444 34.7961 130.582 35.7074 129.761 36.2071C128.931 36.7125 127.94 36.952 126.813 36.952C125.28 36.952 123.902 36.4253 122.696 35.3916L122.69 35.3866ZM138.093 32.66C137.741 33.204 137.357 33.476 136.941 33.476C136.269 33.476 135.933 32.804 135.933 31.46V1.268C135.933 0.756 135.757 0.5 135.405 0.5C135.149 0.5 134.765 0.66 134.253 0.98C133.837 1.236 133.309 1.492 132.669 1.748C132.061 2.004 131.245 2.228 130.221 2.42C129.869 2.484 129.693 2.676 129.693 2.996C129.693 3.316 129.869 3.508 130.221 3.572L131.469 3.716C131.917 3.748 132.221 3.876 132.381 4.1C132.573 4.324 132.669 4.724 132.669 5.3V11.444C132.669 11.924 132.413 12.036 131.901 11.78C131.485 11.588 131.053 11.46 130.605 11.396C130.157 11.3 129.709 11.252 129.261 11.252C127.405 11.252 125.741 11.828 124.269 12.98C122.797 14.132 121.645 15.732 120.813 17.78C119.981 19.796 119.565 22.148 119.565 24.836C119.565 27.14 119.869 29.172 120.477 30.932C121.085 32.66 121.933 34.02 123.021 35.012C124.141 35.972 125.405 36.452 126.813 36.452C127.869 36.452 128.765 36.228 129.501 35.78C130.237 35.332 131.053 34.484 131.949 33.236C132.109 32.98 132.285 32.868 132.477 32.9C132.669 32.9 132.781 33.028 132.813 33.284C132.973 34.148 133.293 34.9 133.773 35.54C134.253 36.148 134.957 36.452 135.885 36.452C136.909 36.452 137.821 35.94 138.621 34.916C139.421 33.86 139.821 32.164 139.821 29.828C139.821 29.284 139.629 29.012 139.245 29.012C138.829 29.012 138.621 29.268 138.621 29.78C138.621 31.124 138.445 32.084 138.093 32.66ZM131.502 30.9004C131.944 30.0167 132.169 29.0225 132.169 27.908V17.108C132.169 15.7428 131.851 14.7307 131.272 14.0142L131.265 14.0049C130.72 13.2969 130.019 12.952 129.117 12.952C127.572 12.952 126.258 13.8424 125.191 15.8538C124.156 17.8337 123.617 20.5903 123.617 24.164C123.617 27.428 124.031 29.8497 124.813 31.4778C125.621 33.0607 126.644 33.744 127.869 33.744C128.582 33.744 129.244 33.514 129.866 33.0333C130.532 32.5121 131.077 31.8103 131.496 30.9126L131.502 30.9004ZM130.173 33.428C129.469 33.972 128.701 34.244 127.869 34.244C126.397 34.244 125.229 33.396 124.365 31.7C123.533 29.972 123.117 27.46 123.117 24.164C123.117 20.548 123.661 17.7 124.749 15.62C125.869 13.508 127.325 12.452 129.117 12.452C130.173 12.452 131.021 12.868 131.661 13.7C132.333 14.532 132.669 15.668 132.669 17.108V27.908C132.669 29.092 132.429 30.164 131.949 31.124C131.501 32.084 130.909 32.852 130.173 33.428Z" fill="#474C62"/>
<path fill-rule="evenodd" clip-rule="evenodd" d="M103.859 34.82C105.171 35.908 106.643 36.452 108.275 36.452C109.907 36.452 111.379 35.908 112.691 34.82C114.003 33.7 115.027 32.18 115.763 30.26C116.531 28.34 116.915 26.196 116.915 23.828C116.915 21.46 116.531 19.332 115.763 17.444C114.995 15.556 113.955 14.052 112.643 12.932C111.363 11.812 109.907 11.252 108.275 11.252C106.675 11.252 105.219 11.812 103.907 12.932C102.595 14.052 101.555 15.556 100.787 17.444C100.019 19.332 99.6353 21.46 99.6353 23.828C99.6353 26.196 100.019 28.34 100.787 30.26C101.555 32.18 102.579 33.7 103.859 34.82ZM112.97 12.5538C111.604 11.359 110.033 10.752 108.275 10.752C106.547 10.752 104.978 11.361 103.583 12.5517C102.2 13.7323 101.117 15.3069 100.324 17.2556C99.5282 19.2123 99.1353 21.4057 99.1353 23.828C99.1353 26.2505 99.5282 28.4587 100.323 30.4457C101.114 32.4234 102.179 34.0143 103.53 35.1963L103.53 35.1964L103.54 35.2049C104.937 36.3637 106.521 36.952 108.275 36.952C110.029 36.952 111.613 36.3637 113.01 35.2049L113.016 35.2003C114.402 34.0173 115.469 32.4238 116.229 30.4424C117.023 28.4563 117.415 26.2491 117.415 23.828C117.415 21.4057 117.022 19.2123 116.226 17.2556C115.434 15.308 114.352 13.7342 112.97 12.5538ZM113.267 23.828C113.267 31.444 111.603 35.252 108.275 35.252C104.947 35.252 103.283 31.444 103.283 23.828C103.283 16.244 104.947 12.452 108.275 12.452C111.603 12.452 113.267 16.244 113.267 23.828ZM111.561 32.1958C112.351 30.3876 112.767 27.615 112.767 23.828C112.767 20.0571 112.351 17.2969 111.561 15.4969C111.169 14.6026 110.695 13.9698 110.157 13.5612C109.625 13.1575 109.005 12.952 108.275 12.952C107.545 12.952 106.925 13.1575 106.394 13.5612C105.856 13.9698 105.382 14.6026 104.989 15.4969C104.199 17.2969 103.783 20.0571 103.783 23.828C103.783 27.615 104.199 30.3876 104.989 32.1958C105.382 33.0943 105.856 33.73 106.395 34.1405C106.926 34.5459 107.546 34.752 108.275 34.752C109.005 34.752 109.625 34.5459 110.156 34.1405C110.694 33.73 111.168 33.0943 111.561 32.1958Z" fill="#474C62"/>
<path fill-rule="evenodd" clip-rule="evenodd" d="M87.7018 36.164C88.5338 36.356 89.3178 36.452 90.0538 36.452C92.1978 36.452 93.9258 35.844 95.2378 34.628C96.5498 33.38 97.2058 31.732 97.2058 29.684C97.2058 28.116 96.7898 26.676 95.9578 25.364C95.1578 24.02 93.9578 22.772 92.3578 21.62C90.5978 20.404 89.3818 19.38 88.7098 18.548C88.0378 17.716 87.7018 16.74 87.7018 15.62C87.7018 14.756 87.9738 14.036 88.5178 13.46C89.0618 12.884 89.7498 12.596 90.5818 12.596C91.5098 12.596 92.2938 13.012 92.9338 13.844C93.5738 14.644 94.2138 16.084 94.8538 18.164C94.9178 18.388 94.9978 18.58 95.0938 18.74C95.1898 18.868 95.3498 18.932 95.5738 18.932C95.9578 18.932 96.1498 18.692 96.1498 18.212L96.0538 12.932C96.0538 12.612 95.9098 12.356 95.6218 12.164C95.1418 11.844 94.5978 11.62 93.9898 11.492C93.3818 11.332 92.7578 11.252 92.1178 11.252C90.0058 11.252 88.3098 11.812 87.0298 12.932C85.7498 14.052 85.1098 15.524 85.1098 17.348C85.1098 18.692 85.4938 19.94 86.2618 21.092C87.0298 22.212 88.2458 23.332 89.9098 24.452C91.5738 25.636 92.7578 26.724 93.4618 27.716C94.1658 28.708 94.5178 29.844 94.5178 31.124C94.5178 32.404 94.2138 33.412 93.6058 34.148C92.9978 34.852 92.2298 35.204 91.3018 35.204C90.1818 35.204 89.2218 34.788 88.4218 33.956C87.6538 33.124 86.9978 31.572 86.4538 29.3C86.3258 28.788 86.0858 28.532 85.7338 28.532C85.3178 28.532 85.1098 28.804 85.1098 29.348L85.2538 34.724C85.2538 35.108 85.3978 35.38 85.6858 35.54C86.1978 35.796 86.8698 36.004 87.7018 36.164ZM84.7538 34.7312L84.6096 29.348C84.6096 29.0264 84.6688 28.6935 84.8686 28.4323C85.0878 28.1456 85.4074 28.032 85.7338 28.032C86.0475 28.032 86.3277 28.1528 86.5426 28.382C86.7429 28.5957 86.8638 28.8785 86.9389 29.1787L86.9401 29.1836C87.4802 31.4395 88.112 32.8807 88.7858 33.6132C89.494 34.348 90.3241 34.704 91.3018 34.704C92.0823 34.704 92.7112 34.4169 93.2238 33.8253C93.7337 33.2056 94.0178 32.3248 94.0178 31.124C94.0178 29.9419 93.6948 28.9082 93.054 28.0054C92.3978 27.0806 91.2673 26.0321 89.6252 24.8631C87.9342 23.7243 86.665 22.5641 85.8494 21.3748L85.8457 21.3694C85.0247 20.1379 84.6098 18.7938 84.6098 17.348C84.6098 15.3916 85.3035 13.7782 86.7005 12.5557C88.0922 11.338 89.9151 10.752 92.1178 10.752C92.7958 10.752 93.4586 10.8363 94.1051 11.0053C94.7657 11.1459 95.3656 11.3923 95.8992 11.748C96.3114 12.0228 96.5522 12.4266 96.5538 12.9271C96.5538 12.9287 96.5538 12.9304 96.5538 12.932L96.6499 18.212C96.6498 18.5054 96.5933 18.818 96.3962 19.0643C96.1821 19.332 95.8761 19.432 95.5738 19.432C95.2595 19.432 94.9183 19.3393 94.6938 19.04L94.6783 19.0194L94.6651 18.9972C94.5426 18.7932 94.4475 18.5607 94.3745 18.3066C93.7374 16.2369 93.1199 14.877 92.5434 14.1563L92.5374 14.1489C91.9779 13.4216 91.3328 13.096 90.5818 13.096C89.8796 13.096 89.3257 13.3328 88.8813 13.8033C88.4333 14.2777 88.2018 14.871 88.2018 15.62C88.2018 16.6315 88.5022 17.4952 89.0988 18.2338C89.7237 19.0076 90.8903 19.9984 92.642 21.2086L92.65 21.2142C94.2892 22.3944 95.5409 23.6884 96.3837 25.102C97.2646 26.4934 97.7058 28.0244 97.7058 29.684C97.7058 31.8492 97.0071 33.6351 95.5824 34.9903L95.5777 34.9947C94.1555 36.3128 92.2974 36.952 90.0538 36.952C89.2772 36.952 88.4582 36.8511 87.5983 36.6533C86.7448 36.4885 86.0275 36.2699 85.4622 35.9872L85.4525 35.9824L85.443 35.9771C84.9692 35.7139 84.7557 35.2577 84.7538 34.7312Z" fill="#474C62"/>
<path fill-rule="evenodd" clip-rule="evenodd" d="M76.8223 6.26C77.3023 6.74 77.8783 6.98 78.5503 6.98C79.2223 6.98 79.7823 6.74 80.2303 6.26C80.6783 5.78 80.9023 5.172 80.9023 4.436C80.9023 3.7 80.6783 3.108 80.2303 2.66C79.7823 2.18 79.2223 1.94 78.5503 1.94C77.8783 1.94 77.3023 2.18 76.8223 2.66C76.3743 3.108 76.1503 3.7 76.1503 4.436C76.1503 5.172 76.3743 5.78 76.8223 6.26ZM80.59 2.31257C80.0458 1.73275 79.3544 1.44 78.5503 1.44C77.7442 1.44 77.0415 1.73375 76.4688 2.30645C75.9118 2.86343 75.6503 3.59057 75.6503 4.436C75.6503 5.28209 75.9117 6.01714 76.4568 6.60116L76.4627 6.60746L76.4688 6.61356C77.0415 7.18625 77.7442 7.48 78.5503 7.48C79.3572 7.48 80.0508 7.18514 80.5959 6.60116C81.141 6.01714 81.4023 5.28209 81.4023 4.436C81.4023 3.59367 81.1428 2.86875 80.59 2.31257ZM73.7983 35.492C73.7983 35.844 74.0383 36.02 74.5183 36.02H82.5343C83.0143 36.02 83.2543 35.828 83.2543 35.444C83.2543 35.156 83.0783 34.98 82.7263 34.916L81.5263 34.772C80.9823 34.708 80.6143 34.532 80.4223 34.244C80.2303 33.956 80.1343 33.476 80.1343 32.804V11.972C80.1343 11.588 79.9903 11.396 79.7023 11.396C79.5103 11.396 79.2703 11.54 78.9823 11.828C78.4063 12.34 77.8143 12.772 77.2063 13.124C76.5983 13.476 75.7983 13.732 74.8063 13.892C74.2943 13.988 74.0383 14.164 74.0383 14.42C74.0383 14.74 74.2463 14.916 74.6623 14.948L75.6703 15.092C76.1183 15.156 76.4223 15.3 76.5823 15.524C76.7743 15.716 76.8703 16.1 76.8703 16.676V32.804C76.8703 33.476 76.7583 33.956 76.5343 34.244C76.3103 34.5 75.7983 34.692 74.9983 34.82L74.4223 34.916C74.0063 35.012 73.7983 35.204 73.7983 35.492ZM76.1495 33.9239C76.1091 33.9649 76.0114 34.0351 75.8068 34.1118C75.5931 34.192 75.3005 34.2653 74.9193 34.3263L74.3249 34.4253L74.3099 34.4288C74.0569 34.4872 73.8075 34.5871 73.6152 34.7646C73.4066 34.9571 73.2983 35.2112 73.2983 35.492C73.2983 35.7943 73.4097 36.0911 73.6827 36.2912C73.9267 36.4701 74.232 36.52 74.5183 36.52H82.5343C82.8278 36.52 83.1404 36.4635 83.3867 36.2664C83.6543 36.0523 83.7543 35.7464 83.7543 35.444C83.7543 35.1899 83.6725 34.939 83.4759 34.7425C83.2908 34.5574 83.0499 34.4666 82.8158 34.4241L82.8009 34.4214L81.5848 34.2754C81.1022 34.2187 80.9116 34.0765 80.8384 33.9667C80.7324 33.8078 80.6343 33.4552 80.6343 32.804V11.972C80.6343 11.7319 80.5919 11.4607 80.4263 11.24C80.2405 10.9923 79.9683 10.896 79.7023 10.896C79.4834 10.896 79.2854 10.9767 79.1211 11.0753C78.9579 11.1732 78.7973 11.3072 78.6397 11.4636C78.0898 11.9513 77.5284 12.3598 76.9558 12.6913C76.4181 13.0026 75.6823 13.2443 74.7267 13.3984L74.7142 13.4006C74.4299 13.4539 74.1587 13.5385 73.9471 13.684C73.7164 13.8426 73.5383 14.091 73.5383 14.42C73.5383 14.6987 73.6351 14.9738 73.8714 15.1737C74.0832 15.353 74.3513 15.4234 74.6067 15.4451L75.5996 15.587C75.9958 15.6436 76.1333 15.7556 76.1755 15.8146L76.1995 15.8483L76.2288 15.8776C76.2379 15.8866 76.2778 15.9354 76.3133 16.0773C76.348 16.2161 76.3703 16.4121 76.3703 16.676V32.804C76.3703 33.4287 76.2643 33.7657 76.1495 33.9239Z" fill="#474C62"/>
<path fill-rule="evenodd" clip-rule="evenodd" d="M52.3262 45.332C52.3262 45.684 52.5662 45.86 53.0462 45.86H61.7342C62.2142 45.86 62.4542 45.668 62.4542 45.284C62.4542 44.996 62.2782 44.82 61.9262 44.756L60.1502 44.516C59.4782 44.42 59.0302 44.244 58.8062 43.988C58.6142 43.764 58.5182 43.316 58.5182 42.644V36.452C58.5182 35.844 58.8062 35.668 59.3822 35.924C60.1182 36.276 60.9662 36.452 61.9262 36.452C63.8142 36.452 65.4782 35.876 66.9182 34.724C68.3902 33.572 69.5422 31.972 70.3742 29.924C71.2062 27.876 71.6222 25.524 71.6222 22.868C71.6222 20.532 71.2862 18.5 70.6142 16.772C69.9742 15.044 69.0782 13.7 67.9262 12.74C66.8062 11.748 65.5102 11.252 64.0382 11.252C63.1742 11.252 62.4062 11.412 61.7342 11.732C61.0622 12.02 60.4062 12.484 59.7662 13.124L59.2382 13.652C58.9822 13.908 58.7582 14.004 58.5662 13.94C58.3742 13.844 58.2782 13.684 58.2782 13.46V11.972C58.2782 11.588 58.1342 11.396 57.8462 11.396C57.6542 11.396 57.4142 11.54 57.1262 11.828C56.5502 12.34 55.9902 12.772 55.4462 13.124C54.9342 13.476 54.1822 13.732 53.1902 13.892C52.6782 13.988 52.4222 14.164 52.4222 14.42C52.4222 14.74 52.6302 14.916 53.0462 14.948L54.0542 15.092C54.5022 15.156 54.8062 15.3 54.9662 15.524C55.1582 15.716 55.2542 16.1 55.2542 16.676V42.644C55.2542 43.316 55.1422 43.796 54.9182 44.084C54.7262 44.372 54.2942 44.564 53.6222 44.66L52.9502 44.756C52.5342 44.788 52.3262 44.98 52.3262 45.332ZM52.8944 44.2589C52.6307 44.2816 52.3561 44.3599 52.143 44.5566C51.9125 44.7694 51.8262 45.0529 51.8262 45.332C51.8262 45.6343 51.9376 45.9311 52.2105 46.1312C52.4545 46.3101 52.7598 46.36 53.0462 46.36H61.7342C62.0276 46.36 62.3402 46.3035 62.5865 46.1064C62.8542 45.8923 62.9542 45.5864 62.9542 45.284C62.9542 45.0299 62.8723 44.779 62.6757 44.5824C62.4906 44.3974 62.2498 44.3066 62.0156 44.2641L62.0044 44.262L60.2209 44.021C60.2202 44.0209 60.2196 44.0208 60.2189 44.0207C59.5709 43.9279 59.2838 43.7722 59.1845 43.661C59.1639 43.6361 59.1175 43.5587 59.0791 43.3792C59.041 43.2016 59.0182 42.9595 59.0182 42.644V36.452C59.0182 36.3982 59.0212 36.3562 59.0254 36.3242C59.0625 36.3343 59.1114 36.3511 59.1732 36.3783C59.9858 36.7655 60.9075 36.952 61.9262 36.952C63.9238 36.952 65.6979 36.3397 67.2283 35.1162C68.7797 33.9014 69.9789 32.2253 70.8374 30.1122C71.6981 27.9937 72.1222 25.5758 72.1222 22.868C72.1222 20.4872 71.7801 18.3924 71.0816 16.5946C70.4193 14.8078 69.4812 13.387 68.252 12.3607C67.0435 11.2925 65.632 10.752 64.0382 10.752C63.1154 10.752 62.275 10.9225 61.5281 11.2763C60.7889 11.5948 60.0845 12.0986 59.4126 12.7704L58.8846 13.2984C58.8436 13.3395 58.8081 13.3707 58.7782 13.3943V11.972C58.7782 11.7319 58.7357 11.4607 58.5702 11.24C58.3844 10.9923 58.1122 10.896 57.8462 10.896C57.6272 10.896 57.4292 10.9767 57.2649 11.0753C57.1017 11.1732 56.941 11.3072 56.7834 11.4637C56.2268 11.9577 55.6904 12.3704 55.1745 12.7042L55.1629 12.712C54.7382 13.004 54.0694 13.2437 53.1106 13.3984L53.098 13.4006C52.8138 13.4539 52.5426 13.5385 52.3309 13.684C52.1002 13.8426 51.9222 14.091 51.9222 14.42C51.9222 14.6987 52.0189 14.9737 52.2552 15.1737C52.4671 15.353 52.7351 15.4234 52.9905 15.4451L53.9835 15.587C54.3796 15.6436 54.5171 15.7555 54.5593 15.8146L54.5834 15.8483L54.6126 15.8776C54.6217 15.8866 54.6616 15.9354 54.6971 16.0773C54.7318 16.2161 54.7542 16.4121 54.7542 16.676V42.644C54.7542 43.2866 54.6419 43.6247 54.5235 43.777L54.5123 43.7915L54.5021 43.8067C54.4378 43.9031 54.2032 44.0719 53.5515 44.165L52.8944 44.2589ZM66.3902 32.084C65.3022 34.196 63.8622 35.252 62.0702 35.252C61.0142 35.252 60.1502 34.836 59.4782 34.004C58.8382 33.172 58.5182 32.036 58.5182 30.596V18.5C58.5182 16.9 58.9182 15.652 59.7182 14.756C60.5182 13.86 61.4622 13.412 62.5502 13.412C64.3102 13.412 65.6702 14.276 66.6302 16.004C67.5902 17.732 68.0702 20.244 68.0702 23.54C68.0702 27.124 67.5102 29.972 66.3902 32.084ZM59.8709 33.6944C59.3215 32.9775 59.0182 31.9632 59.0182 30.596V18.5C59.0182 16.9814 59.3969 15.8666 60.0911 15.089C60.8073 14.2869 61.6204 13.912 62.5502 13.912C64.103 13.912 65.3081 14.6538 66.1931 16.2468C67.0929 17.8665 67.5702 20.2788 67.5702 23.54C67.5702 27.0798 67.0158 29.837 65.9484 31.8498L65.9457 31.855C64.9109 33.8638 63.6132 34.752 62.0702 34.752C61.1694 34.752 60.4487 34.4075 59.8709 33.6944Z" fill="#474C62"/>
<path fill-rule="evenodd" clip-rule="evenodd" d="M30.9121 35.492C30.9121 35.844 31.1521 36.02 31.6321 36.02H48.4801C49.2161 36.02 49.6161 35.652 49.6801 34.916L50.1601 26.372C50.2241 25.828 50.0321 25.556 49.5841 25.556C49.2001 25.556 48.9601 25.764 48.8641 26.18L48.2881 29.012C47.8401 31.252 47.0401 32.788 45.8881 33.62C44.7681 34.42 43.4081 34.82 41.8081 34.82C40.2401 34.82 39.1521 34.564 38.5441 34.052C37.9681 33.54 37.6801 32.708 37.6801 31.556V19.508C37.6801 19.06 37.9041 18.836 38.3521 18.836H40.7041C41.4401 18.836 42.0001 19.012 42.3841 19.364C42.8001 19.716 43.1201 20.452 43.3441 21.572L43.8241 23.924C43.9521 24.404 44.2241 24.612 44.6401 24.548C44.9921 24.484 45.1681 24.212 45.1681 23.732V12.932C45.1681 12.452 44.9921 12.18 44.6401 12.116C44.2241 12.052 43.9521 12.26 43.8241 12.74L43.3441 15.14C43.0241 16.644 42.1601 17.396 40.7521 17.396H38.3521C37.9041 17.396 37.6801 17.172 37.6801 16.724V5.15599C37.6801 4.22799 37.9201 3.58799 38.4001 3.23599C38.9121 2.85199 39.8081 2.65999 41.0881 2.65999C43.0081 2.65999 44.5121 3.17199 45.6001 4.19599C46.6881 5.18799 47.4081 6.77199 47.7601 8.94799L48.0481 10.724C48.1121 11.14 48.3361 11.348 48.7201 11.348C49.2001 11.348 49.4081 11.076 49.3441 10.532L48.9601 2.56399C48.8961 1.82799 48.4961 1.45999 47.7601 1.45999H31.6321C31.1521 1.45999 30.9121 1.63599 30.9121 1.98799C30.9121 2.27599 31.1201 2.46799 31.5361 2.56399L32.6401 2.75599C33.3121 2.88399 33.7441 3.05999 33.9361 3.28399C34.1601 3.50799 34.2721 3.95599 34.2721 4.62799V32.852C34.2721 33.524 34.1601 33.972 33.9361 34.196C33.7441 34.42 33.3121 34.596 32.6401 34.724L31.5361 34.916C31.1201 35.012 30.9121 35.204 30.9121 35.492ZM32.5503 34.2321L31.437 34.4257L31.4237 34.4288C31.1707 34.4872 30.9213 34.5871 30.729 34.7646C30.5204 34.9571 30.4121 35.2112 30.4121 35.492C30.4121 35.7943 30.5235 36.0911 30.7964 36.2912C31.0404 36.4701 31.3458 36.52 31.6321 36.52H48.4801C48.9285 36.52 49.3498 36.4071 49.6706 36.112C49.9912 35.8171 50.1393 35.4064 50.1782 34.9593L50.1789 34.9517L50.6585 26.4144C50.6936 26.0982 50.67 25.7514 50.4726 25.4716C50.2524 25.1597 49.9092 25.056 49.5841 25.056C49.2981 25.056 49.0176 25.1357 48.7886 25.3341C48.5652 25.5278 48.4406 25.7915 48.3769 26.0676L47.7981 28.9123L47.7978 28.9139C47.3604 31.101 46.5988 32.4894 45.5962 33.214C44.5745 33.9434 43.3208 34.32 41.8081 34.32C40.2657 34.32 39.337 34.0622 38.8713 33.6738C38.4486 33.2948 38.1801 32.6322 38.1801 31.556V19.508C38.1801 19.4122 38.1956 19.371 38.2022 19.3581C38.2152 19.3515 38.2563 19.336 38.3521 19.336H40.7041C41.3666 19.336 41.7865 19.4945 42.0462 19.7326L42.0536 19.7393L42.0611 19.7457C42.3365 19.9787 42.632 20.561 42.8538 21.6701L43.3372 24.0385L43.341 24.0528C43.4211 24.3531 43.5648 24.6417 43.8204 24.8372C44.0884 25.0421 44.4066 25.0898 44.7161 25.0422L44.7296 25.0399C45.0257 24.9861 45.2847 24.8323 45.4559 24.5676C45.6158 24.3205 45.6681 24.0247 45.6681 23.732V12.932C45.6681 12.6392 45.6158 12.3434 45.4559 12.0964C45.2847 11.8317 45.0257 11.6779 44.7296 11.6241L44.7161 11.6218C44.4066 11.5742 44.0884 11.6219 43.8204 11.8268C43.5648 12.0223 43.4211 12.3109 43.341 12.6112L43.3369 12.6264L42.8544 15.0388C42.7092 15.7191 42.4536 16.1713 42.1278 16.4548C41.8064 16.7346 41.3642 16.896 40.7521 16.896H38.3521C38.2563 16.896 38.2151 16.8805 38.2022 16.8739C38.1956 16.861 38.1801 16.8198 38.1801 16.724V5.15599C38.1801 4.29607 38.4033 3.85367 38.6958 3.63919L38.7001 3.63599C39.0738 3.35573 39.8258 3.15999 41.0881 3.15999C42.9184 3.15999 44.2864 3.64616 45.2574 4.56009L45.2632 4.56547C46.2352 5.45172 46.924 6.91023 47.2665 9.02784L47.5539 10.8C47.554 10.8008 47.5542 10.8016 47.5543 10.8024C47.5973 11.0795 47.7037 11.3539 47.9239 11.5584C48.1504 11.7687 48.4356 11.848 48.7201 11.848C49.0495 11.848 49.4006 11.752 49.6333 11.4477C49.8482 11.1667 49.8781 10.8138 49.8428 10.4917L49.4591 2.53029L49.4582 2.52068C49.4193 2.07355 49.2712 1.66292 48.9506 1.36803C48.6298 1.07288 48.2085 0.959991 47.7601 0.959991H31.6321C31.3458 0.959991 31.0404 1.00986 30.7964 1.18879C30.5235 1.38892 30.4121 1.68572 30.4121 1.98799C30.4121 2.26878 30.5204 2.52288 30.729 2.71539C30.9213 2.89292 31.1707 2.99281 31.4237 3.05119L31.437 3.05426L32.5505 3.24791C32.8656 3.30811 33.1055 3.37615 33.2795 3.44704C33.4602 3.52069 33.5339 3.58299 33.5565 3.60939L33.569 3.62397L33.5826 3.63754C33.6076 3.66261 33.6596 3.73538 33.703 3.90926C33.7458 4.08011 33.7721 4.31612 33.7721 4.62799V32.852C33.7721 33.1639 33.7458 33.3999 33.703 33.5707C33.6596 33.7446 33.6076 33.8174 33.5826 33.8424L33.569 33.856L33.5565 33.8706C33.5339 33.897 33.4602 33.9593 33.2795 34.0329C33.1054 34.1039 32.8655 34.1719 32.5503 34.2321Z" fill="#474C62"/>
<path d="M32.5551 12.0869C16.6435 14.3734 6.5162 18.7993 5.81676 24.8775C4.37952 37.3673 43.2946 52.1044 92.7359 57.7938C142.177 63.4831 183.423 57.9703 184.86 45.4805C185.279 41.8338 182.259 37.9955 176.541 34.2468" stroke="#474C62" stroke-width="0.5"/>
<path d="M183.797 41.6413C184.038 40.9883 184.962 40.9883 185.203 41.6413L185.862 43.4199C185.988 43.7621 186.258 44.0318 186.6 44.1585L188.379 44.8166C189.032 45.0582 189.032 45.9818 188.379 46.2234L186.6 46.8816C186.258 47.0082 185.988 47.2779 185.862 47.6201L185.203 49.3987C184.962 50.0517 184.038 50.0517 183.797 49.3987L183.138 47.6201C183.012 47.2779 182.742 47.0082 182.4 46.8816L180.621 46.2234C179.968 45.9818 179.968 45.0582 180.621 44.8166L182.4 44.1585C182.742 44.0318 183.012 43.7621 183.138 43.4199L183.797 41.6413Z" fill="#FFDEE5" stroke="#474C62" stroke-width="0.5"/>
<path d="M5.79661 19.6413C6.03823 18.9883 6.96177 18.9883 7.20339 19.6413L7.86155 21.4199C7.98816 21.7621 8.25792 22.0318 8.60007 22.1585L10.3787 22.8166C11.0317 23.0582 11.0317 23.9818 10.3787 24.2234L8.60007 24.8816C8.25792 25.0082 7.98816 25.2779 7.86155 25.6201L7.20339 27.3987C6.96177 28.0517 6.03823 28.0517 5.79661 27.3987L5.13845 25.6201C5.01184 25.2779 4.74208 25.0082 4.39993 24.8816L2.62126 24.2234C1.9683 23.9818 1.9683 23.0582 2.62126 22.8166L4.39993 22.1585C4.74208 22.0318 5.01184 21.7621 5.13845 21.4199L5.79661 19.6413Z" fill="#E4E6FF" stroke="#474C62" stroke-width="0.5"/>
</svg>
