<?xml version="1.0" encoding="UTF-8"?>
<svg xmlns="http://www.w3.org/2000/svg" xmlns:xlink="http://www.w3.org/1999/xlink" version="1.1" viewBox="0 0 191 80">
  <defs>
    <linearGradient id="shimmer" x1="0%" y1="0%" x2="100%" y2="0%">
      <stop offset="0%" stop-color="#B3B9D1" stop-opacity="1" />
      <stop offset="50%" stop-color="#FFFFFF" stop-opacity="1" />
      <stop offset="100%" stop-color="#B3B9D1" stop-opacity="1" />
      <animate
        attributeName="x1"
        values="-100%;0%;100%"
        dur="4s"
        repeatCount="indefinite"
        id="shimmerAnim"
        begin="0s"
      />
      <animate
        attributeName="x2"
        values="0%;100%;200%"
        dur="4s"
        begin="0s;shimmerAnim.end+10s"
        repeatCount="indefinite"
        fill="freeze"
        id="shimmerAnim2"
      />
      <animate
        attributeName="stop-color"
        values="#CACEFF; #CACEFF"
        dur="5s"
        begin="0s;shimmerAnim2.end"
        fill="freeze"
      />
    </linearGradient>
    <style>
      .cls-1 {
        mask: url(#mask);
      }

      .cls-2 {
        fill: #ffdee5;
      }

      .cls-2, .cls-4 {
        stroke: #474c62;
        stroke-width: .5px;
      }

      .cls-5 {
        fill: #ffeaef;
      }

      .cls-6 {
        fill: #fff;
      }

      .cls-3 {
        fill: none;
      }

      .cls-7 {
        fill: #474c62;
      }

      .cls-4 {
        fill: #e4e6ff;
      }

      #orbit {
        stroke: url(#shimmer);
      }
    </style>
    <mask id="mask" x="30" y="10" width="142" height="48" maskUnits="userSpaceOnUse">
      <g id="path-1-outside-1_84_3">
        <rect class="cls-6" x="30" y="10" width="142" height="48"/>
        <path d="M31.6,47c-.5,0-.7-.2-.7-.5s.2-.5.6-.6l1.1-.2c.7-.1,1.1-.3,1.3-.5.2-.2.3-.7.3-1.3V15.6c0-.7-.1-1.1-.3-1.3-.2-.2-.6-.4-1.3-.5l-1.1-.2c-.4,0-.6-.3-.6-.6s.2-.5.7-.5h16.1c.7,0,1.1.4,1.2,1.1l.4,8c0,.5-.1.8-.6.8s-.6-.2-.7-.6l-.3-1.8c-.4-2.2-1.1-3.8-2.2-4.8-1.1-1-2.6-1.5-4.5-1.5s-2.2.2-2.7.6c-.5.4-.7,1-.7,1.9v11.6c0,.4.2.7.7.7h2.4c1.4,0,2.3-.8,2.6-2.3l.5-2.4c.1-.5.4-.7.8-.6.4,0,.5.3.5.8v10.8c0,.5-.2.8-.5.8-.4,0-.7-.1-.8-.6l-.5-2.4c-.2-1.1-.5-1.9-1-2.2-.4-.4-.9-.5-1.7-.5h-2.4c-.4,0-.7.2-.7.7v12c0,1.2.3,2,.9,2.5.6.5,1.7.8,3.3.8s3-.4,4.1-1.2c1.2-.8,2-2.4,2.4-4.6l.6-2.8c0-.4.3-.6.7-.6s.6.3.6.8l-.5,8.5c0,.7-.5,1.1-1.2,1.1h-16.8ZM53,56.8c-.5,0-.7-.2-.7-.5s.2-.5.6-.6h.7c.7-.2,1.1-.4,1.3-.7.2-.3.3-.8.3-1.4v-26c0-.6,0-1-.3-1.2-.2-.2-.5-.4-.9-.4h-1c-.4-.2-.6-.4-.6-.7s.3-.4.8-.5c1-.2,1.7-.4,2.3-.8.5-.4,1.1-.8,1.7-1.3.3-.3.5-.4.7-.4.3,0,.4.2.4.6v1.5c0,.2,0,.4.3.5.2,0,.4,0,.7-.3l.5-.5c.6-.6,1.3-1.1,2-1.4.7-.3,1.4-.5,2.3-.5,1.5,0,2.8.5,3.9,1.5,1.2,1,2,2.3,2.7,4,.7,1.7,1,3.8,1,6.1s-.4,5-1.2,7.1-2,3.6-3.5,4.8c-1.4,1.2-3.1,1.7-5,1.7s-1.8-.2-2.5-.5c-.6-.3-.9,0-.9.5v6.2c0,.7,0,1.1.3,1.3.2.3.7.4,1.3.5l1.8.2c.4,0,.5.2.5.5s-.2.6-.7.6h-8.7ZM62.1,46.2c1.8,0,3.2-1.1,4.3-3.2,1.1-2.1,1.7-5,1.7-8.5s-.5-5.8-1.4-7.5c-1-1.7-2.3-2.6-4.1-2.6s-2,.4-2.8,1.3c-.8.9-1.2,2.1-1.2,3.7v12.1c0,1.4.3,2.6,1,3.4.7.8,1.5,1.2,2.6,1.2ZM78.6,18c-.7,0-1.2-.2-1.7-.7-.4-.5-.7-1.1-.7-1.8s.2-1.3.7-1.8c.5-.5,1.1-.7,1.7-.7s1.2.2,1.7.7c.4.4.7,1,.7,1.8s-.2,1.3-.7,1.8c-.4.5-1,.7-1.7.7ZM74.5,47c-.5,0-.7-.2-.7-.5s.2-.5.6-.6h.6c.8-.2,1.3-.4,1.5-.7.2-.3.3-.8.3-1.4v-16.1c0-.6,0-1-.3-1.2-.2-.2-.5-.4-.9-.4h-1c-.4-.2-.6-.4-.6-.7s.3-.4.8-.5c1-.2,1.8-.4,2.4-.8s1.2-.8,1.8-1.3c.3-.3.5-.4.7-.4.3,0,.4.2.4.6v20.8c0,.7,0,1.2.3,1.4.2.3.6.5,1.1.5h1.2c.4.2.5.4.5.7s-.2.6-.7.6h-8ZM90.1,47.4c-.7,0-1.5,0-2.4-.3-.8-.2-1.5-.4-2-.6-.3-.2-.4-.4-.4-.8v-5.4c-.1-.5,0-.8.5-.8s.6.3.7.8c.5,2.3,1.2,3.8,2,4.7.8.8,1.8,1.2,2.9,1.2s1.7-.4,2.3-1.1c.6-.7.9-1.7.9-3s-.4-2.4-1.1-3.4-1.9-2.1-3.6-3.3c-1.7-1.1-2.9-2.2-3.6-3.4-.8-1.2-1.2-2.4-1.2-3.7s.6-3.3,1.9-4.4c1.3-1.1,3-1.7,5.1-1.7s1.3,0,1.9.2c.6.1,1.2.4,1.6.7.3.2.4.4.4.8v5.3c0,.5,0,.7-.5.7s-.4,0-.5-.2c0-.2-.2-.4-.2-.6-.6-2.1-1.3-3.5-1.9-4.3-.6-.8-1.4-1.2-2.4-1.2s-1.5.3-2.1.9-.8,1.3-.8,2.2.3,2.1,1,2.9c.7.8,1.9,1.9,3.6,3.1,1.6,1.2,2.8,2.4,3.6,3.7.8,1.3,1.2,2.8,1.2,4.3s-.7,3.7-2,4.9c-1.3,1.2-3,1.8-5.2,1.8ZM108.3,47.4c-1.6,0-3.1-.5-4.4-1.6-1.3-1.1-2.3-2.6-3.1-4.6-.8-1.9-1.2-4.1-1.2-6.4s.4-4.5,1.2-6.4c.8-1.9,1.8-3.4,3.1-4.5,1.3-1.1,2.8-1.7,4.4-1.7s3.1.6,4.4,1.7c1.3,1.1,2.4,2.6,3.1,4.5s1.2,4,1.2,6.4-.4,4.5-1.2,6.4c-.7,1.9-1.8,3.4-3.1,4.6-1.3,1.1-2.8,1.6-4.4,1.6ZM108.3,46.2c3.3,0,5-3.8,5-11.4s-1.7-11.4-5-11.4-5,3.8-5,11.4,1.7,11.4,5,11.4ZM126.8,47.4c-1.4,0-2.7-.5-3.8-1.4-1.1-1-1.9-2.4-2.5-4.1-.6-1.8-.9-3.8-.9-6.1s.4-5,1.2-7.1c.8-2,2-3.6,3.5-4.8,1.5-1.2,3.1-1.7,5-1.7s.9,0,1.3.1c.4,0,.9.2,1.3.4.5.3.8.1.8-.3v-6.1c0-.6,0-1-.3-1.2-.2-.2-.5-.4-.9-.4h-1.2c-.4-.2-.5-.4-.5-.7s.2-.5.5-.6c1-.2,1.8-.4,2.4-.7.6-.3,1.2-.5,1.6-.8.5-.3.9-.5,1.2-.5s.5.3.5.8v30.2c0,1.3.3,2,1,2s.8-.3,1.2-.8c.4-.6.5-1.5.5-2.9s.2-.8.6-.8.6.3.6.8c0,2.3-.4,4-1.2,5.1-.8,1-1.7,1.5-2.7,1.5s-1.6-.3-2.1-.9c-.5-.6-.8-1.4-1-2.3,0-.3-.1-.4-.3-.4-.2,0-.4,0-.5.3-.9,1.2-1.7,2.1-2.4,2.5-.7.4-1.6.7-2.7.7ZM127.9,45.2c.8,0,1.6-.3,2.3-.8.7-.6,1.3-1.3,1.8-2.3.5-1,.7-2,.7-3.2v-10.8c0-1.4-.3-2.6-1-3.4-.6-.8-1.5-1.2-2.5-1.2-1.8,0-3.2,1.1-4.4,3.2-1.1,2.1-1.6,4.9-1.6,8.5s.4,5.8,1.2,7.5c.9,1.7,2,2.5,3.5,2.5ZM149.3,47.4c-1.5,0-2.9-.5-4.1-1.5s-2.2-2.5-2.9-4.3c-.7-1.9-1.1-4.1-1.1-6.5s.4-4.8,1.1-6.7c.7-1.9,1.7-3.4,3-4.5,1.3-1.1,2.7-1.6,4.3-1.6s3.4.8,4.6,2.4c1.2,1.5,1.8,4,1.8,7.5s-.4,1.6-1.2,1.6h-9.1c-.6,0-1,.4-1,1.1,0,3.4.5,5.9,1.5,7.6,1,1.7,2.3,2.5,3.8,2.5s2.2-.4,3-1.3,1.4-2.3,1.9-4.4c0-.4.3-.5.6-.5s.5.3.4,1c-.5,2.8-1.3,4.8-2.4,6-1.1,1.1-2.5,1.7-4.1,1.7ZM145.4,32.5h4.8c1.5,0,2.3-.8,2.3-2.4s-.3-3.7-.8-4.9c-.5-1.2-1.3-1.8-2.3-1.8s-2.3.7-3.2,2.2c-.8,1.4-1.4,3.5-1.6,6.1,0,.5.2.8.7.8ZM163.4,47.4c-.7,0-1.5,0-2.4-.3-.8-.2-1.5-.4-2-.6-.3-.2-.4-.4-.4-.8v-5.4c-.1-.5,0-.8.5-.8s.6.3.7.8c.5,2.3,1.2,3.8,2,4.7.8.8,1.8,1.2,2.9,1.2s1.7-.4,2.3-1.1c.6-.7.9-1.7.9-3s-.4-2.4-1.1-3.4-1.9-2.1-3.6-3.3c-1.7-1.1-2.9-2.2-3.6-3.4-.8-1.2-1.2-2.4-1.2-3.7s.6-3.3,1.9-4.4c1.3-1.1,3-1.7,5.1-1.7s1.3,0,1.9.2c.6.1,1.2.4,1.6.7.3.2.4.4.4.8v5.3c0,.5,0,.7-.5.7s-.4,0-.5-.2c0-.2-.2-.4-.2-.6-.6-2.1-1.3-3.5-1.9-4.3-.6-.8-1.4-1.2-2.4-1.2s-1.5.3-2.1.9-.8,1.3-.8,2.2.3,2.1,1,2.9,1.9,1.9,3.6,3.1c1.6,1.2,2.8,2.4,3.6,3.7.8,1.3,1.2,2.8,1.2,4.3s-.7,3.7-2,4.9c-1.3,1.2-3,1.8-5.2,1.8Z"/>
      </g>
    </mask>
  </defs>
  <!-- Generator: Adobe Illustrator 28.6.0, SVG Export Plug-In . SVG Version: 1.2.0 Build 709)  -->
  <g>
    <g id="_レイヤー_1" data-name="レイヤー_1">
      <path id="episode" class="cls-5" d="M31.6,47c-.5,0-.7-.2-.7-.5s.2-.5.6-.6l1.1-.2c.7-.1,1.1-.3,1.3-.5.2-.2.3-.7.3-1.3V15.6c0-.7-.1-1.1-.3-1.3-.2-.2-.6-.4-1.3-.5l-1.1-.2c-.4,0-.6-.3-.6-.6s.2-.5.7-.5h16.1c.7,0,1.1.4,1.2,1.1l.4,8c0,.5-.1.8-.6.8s-.6-.2-.7-.6l-.3-1.8c-.4-2.2-1.1-3.8-2.2-4.8-1.1-1-2.6-1.5-4.5-1.5s-2.2.2-2.7.6c-.5.4-.7,1-.7,1.9v11.6c0,.4.2.7.7.7h2.4c1.4,0,2.3-.8,2.6-2.3l.5-2.4c.1-.5.4-.7.8-.6.4,0,.5.3.5.8v10.8c0,.5-.2.8-.5.8-.4,0-.7-.1-.8-.6l-.5-2.4c-.2-1.1-.5-1.9-1-2.2-.4-.4-.9-.5-1.7-.5h-2.4c-.4,0-.7.2-.7.7v12c0,1.2.3,2,.9,2.5.6.5,1.7.8,3.3.8s3-.4,4.1-1.2c1.2-.8,2-2.4,2.4-4.6l.6-2.8c0-.4.3-.6.7-.6s.6.3.6.8l-.5,8.5c0,.7-.5,1.1-1.2,1.1h-16.8ZM53,56.8c-.5,0-.7-.2-.7-.5s.2-.5.6-.6h.7c.7-.2,1.1-.4,1.3-.7.2-.3.3-.8.3-1.4v-26c0-.6,0-1-.3-1.2-.2-.2-.5-.4-.9-.4h-1c-.4-.2-.6-.4-.6-.7s.3-.4.8-.5c1-.2,1.7-.4,2.3-.8.5-.4,1.1-.8,1.7-1.3.3-.3.5-.4.7-.4.3,0,.4.2.4.6v1.5c0,.2,0,.4.3.5.2,0,.4,0,.7-.3l.5-.5c.6-.6,1.3-1.1,2-1.4.7-.3,1.4-.5,2.3-.5,1.5,0,2.8.5,3.9,1.5,1.2,1,2,2.3,2.7,4,.7,1.7,1,3.8,1,6.1s-.4,5-1.2,7.1-2,3.6-3.5,4.8c-1.4,1.2-3.1,1.7-5,1.7s-1.8-.2-2.5-.5c-.6-.3-.9,0-.9.5v6.2c0,.7,0,1.1.3,1.3.2.3.7.4,1.3.5l1.8.2c.4,0,.5.2.5.5s-.2.6-.7.6h-8.7ZM62.1,46.2c1.8,0,3.2-1.1,4.3-3.2,1.1-2.1,1.7-5,1.7-8.5s-.5-5.8-1.4-7.5c-1-1.7-2.3-2.6-4.1-2.6s-2,.4-2.8,1.3c-.8.9-1.2,2.1-1.2,3.7v12.1c0,1.4.3,2.6,1,3.4.7.8,1.5,1.2,2.6,1.2ZM78.6,18c-.7,0-1.2-.2-1.7-.7-.4-.5-.7-1.1-.7-1.8s.2-1.3.7-1.8c.5-.5,1.1-.7,1.7-.7s1.2.2,1.7.7c.4.4.7,1,.7,1.8s-.2,1.3-.7,1.8c-.4.5-1,.7-1.7.7ZM74.5,47c-.5,0-.7-.2-.7-.5s.2-.5.6-.6h.6c.8-.2,1.3-.4,1.5-.7.2-.3.3-.8.3-1.4v-16.1c0-.6,0-1-.3-1.2-.2-.2-.5-.4-.9-.4h-1c-.4-.2-.6-.4-.6-.7s.3-.4.8-.5c1-.2,1.8-.4,2.4-.8s1.2-.8,1.8-1.3c.3-.3.5-.4.7-.4.3,0,.4.2.4.6v20.8c0,.7,0,1.2.3,1.4.2.3.6.5,1.1.5h1.2c.4.2.5.4.5.7s-.2.6-.7.6h-8ZM90.1,47.4c-.7,0-1.5,0-2.4-.3-.8-.2-1.5-.4-2-.6-.3-.2-.4-.4-.4-.8v-5.4c-.1-.5,0-.8.5-.8s.6.3.7.8c.5,2.3,1.2,3.8,2,4.7.8.8,1.8,1.2,2.9,1.2s1.7-.4,2.3-1.1c.6-.7.9-1.7.9-3s-.4-2.4-1.1-3.4-1.9-2.1-3.6-3.3c-1.7-1.1-2.9-2.2-3.6-3.4-.8-1.2-1.2-2.4-1.2-3.7s.6-3.3,1.9-4.4c1.3-1.1,3-1.7,5.1-1.7s1.3,0,1.9.2c.6.1,1.2.4,1.6.7.3.2.4.4.4.8v5.3c0,.5,0,.7-.5.7s-.4,0-.5-.2c0-.2-.2-.4-.2-.6-.6-2.1-1.3-3.5-1.9-4.3-.6-.8-1.4-1.2-2.4-1.2s-1.5.3-2.1.9-.8,1.3-.8,2.2.3,2.1,1,2.9c.7.8,1.9,1.9,3.6,3.1,1.6,1.2,2.8,2.4,3.6,3.7.8,1.3,1.2,2.8,1.2,4.3s-.7,3.7-2,4.9c-1.3,1.2-3,1.8-5.2,1.8ZM108.3,47.4c-1.6,0-3.1-.5-4.4-1.6-1.3-1.1-2.3-2.6-3.1-4.6-.8-1.9-1.2-4.1-1.2-6.4s.4-4.5,1.2-6.4c.8-1.9,1.8-3.4,3.1-4.5,1.3-1.1,2.8-1.7,4.4-1.7s3.1.6,4.4,1.7c1.3,1.1,2.4,2.6,3.1,4.5s1.2,4,1.2,6.4-.4,4.5-1.2,6.4c-.7,1.9-1.8,3.4-3.1,4.6-1.3,1.1-2.8,1.6-4.4,1.6ZM108.3,46.2c3.3,0,5-3.8,5-11.4s-1.7-11.4-5-11.4-5,3.8-5,11.4,1.7,11.4,5,11.4ZM126.8,47.4c-1.4,0-2.7-.5-3.8-1.4-1.1-1-1.9-2.4-2.5-4.1-.6-1.8-.9-3.8-.9-6.1s.4-5,1.2-7.1c.8-2,2-3.6,3.5-4.8,1.5-1.2,3.1-1.7,5-1.7s.9,0,1.3.1c.4,0,.9.2,1.3.4.5.3.8.1.8-.3v-6.1c0-.6,0-1-.3-1.2-.2-.2-.5-.4-.9-.4h-1.2c-.4-.2-.5-.4-.5-.7s.2-.5.5-.6c1-.2,1.8-.4,2.4-.7.6-.3,1.2-.5,1.6-.8.5-.3.9-.5,1.2-.5s.5.3.5.8v30.2c0,1.3.3,2,1,2s.8-.3,1.2-.8c.4-.6.5-1.5.5-2.9s.2-.8.6-.8.6.3.6.8c0,2.3-.4,4-1.2,5.1-.8,1-1.7,1.5-2.7,1.5s-1.6-.3-2.1-.9c-.5-.6-.8-1.4-1-2.3,0-.3-.1-.4-.3-.4-.2,0-.4,0-.5.3-.9,1.2-1.7,2.1-2.4,2.5-.7.4-1.6.7-2.7.7ZM127.9,45.2c.8,0,1.6-.3,2.3-.8.7-.6,1.3-1.3,1.8-2.3.5-1,.7-2,.7-3.2v-10.8c0-1.4-.3-2.6-1-3.4-.6-.8-1.5-1.2-2.5-1.2-1.8,0-3.2,1.1-4.4,3.2-1.1,2.1-1.6,4.9-1.6,8.5s.4,5.8,1.2,7.5c.9,1.7,2,2.5,3.5,2.5ZM149.3,47.4c-1.5,0-2.9-.5-4.1-1.5s-2.2-2.5-2.9-4.3c-.7-1.9-1.1-4.1-1.1-6.5s.4-4.8,1.1-6.7c.7-1.9,1.7-3.4,3-4.5,1.3-1.1,2.7-1.6,4.3-1.6s3.4.8,4.6,2.4c1.2,1.5,1.8,4,1.8,7.5s-.4,1.6-1.2,1.6h-9.1c-.6,0-1,.4-1,1.1,0,3.4.5,5.9,1.5,7.6,1,1.7,2.3,2.5,3.8,2.5s2.2-.4,3-1.3,1.4-2.3,1.9-4.4c0-.4.3-.5.6-.5s.5.3.4,1c-.5,2.8-1.3,4.8-2.4,6-1.1,1.1-2.5,1.7-4.1,1.7ZM145.4,32.5h4.8c1.5,0,2.3-.8,2.3-2.4s-.3-3.7-.8-4.9c-.5-1.2-1.3-1.8-2.3-1.8s-2.3.7-3.2,2.2c-.8,1.4-1.4,3.5-1.6,6.1,0,.5.2.8.7.8ZM163.4,47.4c-.7,0-1.5,0-2.4-.3-.8-.2-1.5-.4-2-.6-.3-.2-.4-.4-.4-.8v-5.4c-.1-.5,0-.8.5-.8s.6.3.7.8c.5,2.3,1.2,3.8,2,4.7.8.8,1.8,1.2,2.9,1.2s1.7-.4,2.3-1.1c.6-.7.9-1.7.9-3s-.4-2.4-1.1-3.4-1.9-2.1-3.6-3.3c-1.7-1.1-2.9-2.2-3.6-3.4-.8-1.2-1.2-2.4-1.2-3.7s.6-3.3,1.9-4.4c1.3-1.1,3-1.7,5.1-1.7s1.3,0,1.9.2c.6.1,1.2.4,1.6.7.3.2.4.4.4.8v5.3c0,.5,0,.7-.5.7s-.4,0-.5-.2c0-.2-.2-.4-.2-.6-.6-2.1-1.3-3.5-1.9-4.3-.6-.8-1.4-1.2-2.4-1.2s-1.5.3-2.1.9-.8,1.3-.8,2.2.3,2.1,1,2.9,1.9,1.9,3.6,3.1c1.6,1.2,2.8,2.4,3.6,3.7.8,1.3,1.2,2.8,1.2,4.3s-.7,3.7-2,4.9c-1.3,1.2-3,1.8-5.2,1.8Z"/>
      <g class="cls-1">
        <path id="episode-2" data-name="episode" class="cls-7" d="M31.5,45.9v-.5c0,0,0,0,0,0h0s.1.5.1.5ZM32.6,45.7v.5c0,0,0,0,0,0v-.5ZM33.9,45.2l-.4-.4h0s0,0,0,0l.4.3ZM33.9,14.3l-.4.3h0s0,0,0,0l.4-.4ZM32.6,13.7v-.5c0,0,0,0,0,0v.5ZM31.5,13.5v.5c-.1,0,0,0,0,0h0s0-.5,0-.5ZM49,13.5h.5s0,0,0,0h0s-.5,0-.5,0ZM49.3,21.5h-.5s0,0,0,0h0s.5,0,.5,0ZM48,21.7h.5c0,0,0,0,0,0h-.5ZM47.8,19.9h-.5c0,0,.5,0,.5,0ZM45.6,15.2l-.3.4h0s.3-.4.3-.4ZM38.4,14.2l.3.4h0s-.3-.4-.3-.4ZM43.3,26.1h.5c0,.1,0,0,0,0h-.5ZM43.8,23.7h-.5c0-.1,0-.1,0-.1h0s.5.1.5.1ZM44.6,23.1v-.5c0,0,0,0,0,0v.5ZM44.6,35.5v.5c0,0,0,0,0,0v-.5ZM43.8,34.9h-.5c0,.1,0,.1,0,.1h0s.5-.1.5-.1ZM43.3,32.6h-.5c0,0,0,.1,0,.1h.5ZM42.4,30.3l-.3.4h0s0,0,0,0l.3-.4ZM38.5,45l-.3.4h0s.3-.4.3-.4ZM45.9,44.6l.3.4h0s-.3-.4-.3-.4ZM48.3,40h-.5c0,0,0,0,0,0h.5ZM48.9,37.2h-.5c0-.1,0,0,0,0h.5ZM50.2,37.4h-.5c0,0,0,0,0,0h0s.5,0,.5,0ZM49.7,45.9h.5s0,0,0,0h0s-.5,0-.5,0ZM31.6,46.5c0,0-.2,0-.2,0,0,0,0,0,0,0,0,0,0,0,0,0,0,0,0,0,0,0h-1c0,.3.1.6.4.8.2.2.5.2.8.2v-1ZM31.4,46.5s0,0,0,0c0,0,0,0,0,0,0,0,0,0,.2,0l-.2-1c-.3,0-.5.2-.7.3-.2.2-.3.4-.3.7h1ZM31.6,46.4l1.1-.2-.2-1-1.1.2.2,1ZM32.7,46.2c.4,0,.7-.2.9-.3.3-.1.5-.2.7-.4l-.8-.7s0,0-.3.2c-.2,0-.4.1-.7.2l.2,1ZM34.3,45.5c.2-.2.3-.5.4-.7,0-.3,0-.6,0-1h-1c0,.3,0,.5,0,.7,0,.2,0,.2-.1.3l.7.7ZM34.8,43.8V15.6h-1v28.2h1ZM34.8,15.6c0-.4,0-.7,0-1,0-.3-.2-.5-.4-.7l-.7.7s0,0,.1.3c0,.2,0,.4,0,.7h1ZM34.3,13.9c-.2-.2-.4-.3-.7-.4-.3-.1-.6-.2-.9-.3l-.2,1c.3,0,.6.1.7.2.2,0,.3.1.3.2l.8-.7ZM32.7,13.2l-1.1-.2-.2,1,1.1.2.2-1ZM31.6,13.1c-.2,0-.2,0-.2,0,0,0,0,0,0,0,0,0,0,0,0,0h-1c0,.3.1.5.3.7.2.2.4.3.7.3l.2-1ZM31.4,13s0,0,0,0c0,0,0,0,0,0,0,0,0,0,0,0,0,0,.1,0,.2,0v-1c-.3,0-.6,0-.8.2-.3.2-.4.5-.4.8h1ZM31.6,12.9h16.1v-1h-16.1v1ZM47.8,12.9c.3,0,.4,0,.5.1,0,0,.2.2.2.5h1c0-.5-.2-.9-.5-1.2-.3-.3-.7-.4-1.2-.4v1ZM48.5,13.6l.4,8h1s-.4-8-.4-8h-1ZM48.8,21.6c0,.2,0,.3,0,.2,0,0,0,0,0,0,0,0,0,0-.1,0v1c.3,0,.7,0,.9-.4.2-.3.2-.6.2-1h-1ZM48.7,21.8c0,0,0,0,0,0,0,0,0,0,0,0,0,0,0,0,0-.2l-1,.2c0,.3.1.6.4.8.2.2.5.3.8.3v-1ZM48.5,21.6l-.3-1.8-1,.2.3,1.8,1-.2ZM48.3,19.8c-.4-2.2-1.1-3.9-2.3-5l-.7.7c1,.9,1.7,2.3,2,4.5l1-.2ZM45.9,14.8c-1.2-1.1-2.8-1.7-4.9-1.7v1c1.8,0,3.2.5,4.2,1.4l.7-.7ZM41.1,13.1c-1.3,0-2.3.2-3,.7l.6.8c.4-.3,1.1-.5,2.4-.5v-1ZM38.1,13.8c-.7.5-.9,1.3-.9,2.3h1c0-.9.2-1.3.5-1.5l-.6-.8ZM37.2,16.1v11.6h1v-11.6h-1ZM37.2,27.7c0,.3,0,.6.3.9.2.2.6.3.9.3v-1c-.1,0-.2,0-.2,0,0,0,0,0,0-.2h-1ZM38.4,28.9h2.4v-1h-2.4v1ZM40.8,28.9c.8,0,1.5-.2,2-.7.5-.5.9-1.1,1-2l-1-.2c-.1.7-.4,1.1-.7,1.4-.3.3-.8.4-1.4.4v1ZM43.8,26.2l.5-2.4-1-.2-.5,2.4,1,.2ZM44.3,23.8c0-.2.1-.2.1-.2,0,0,0,0,.1,0l.2-1c-.3,0-.6,0-.9.2-.3.2-.4.5-.5.8l1,.3ZM44.6,23.6s0,0,0,0c0,0,0,0,0,0,0,0,0,.1,0,.3h1c0-.3,0-.6-.2-.8-.2-.3-.4-.4-.7-.5l-.2,1ZM44.7,23.9v10.8h1v-10.8h-1ZM44.7,34.7c0,.2,0,.3,0,.3,0,0,0,0,0,0,0,0,0,0,0,0l.2,1c.3,0,.6-.2.7-.5.2-.2.2-.5.2-.8h-1ZM44.6,35c-.1,0-.1,0-.1,0,0,0,0,0-.1-.2l-1,.3c0,.3.2.6.5.8.3.2.6.3.9.2l-.2-1ZM44.3,34.8l-.5-2.4-1,.2.5,2.4,1-.2ZM43.8,32.5c-.2-1.1-.6-2-1.1-2.5l-.6.8c.3.2.6.8.8,1.9l1-.2ZM42.7,30c-.5-.5-1.2-.7-2-.7v1c.7,0,1.1.2,1.3.4l.7-.7ZM40.7,29.3h-2.4v1h2.4v-1ZM38.4,29.3c-.3,0-.6,0-.9.3-.2.2-.3.6-.3.9h1c0-.1,0-.2,0-.2,0,0,0,0,.2,0v-1ZM37.2,30.5v12h1v-12h-1ZM37.2,42.5c0,1.2.3,2.2,1,2.9l.7-.7c-.4-.4-.7-1-.7-2.1h-1ZM38.2,45.4c.8.6,2,.9,3.6.9v-1c-1.5,0-2.5-.3-2.9-.7l-.6.8ZM41.8,46.3c1.7,0,3.2-.4,4.4-1.3l-.6-.8c-1,.7-2.3,1.1-3.8,1.1v1ZM46.2,45c1.3-.9,2.1-2.6,2.6-4.9l-1-.2c-.4,2.2-1.2,3.6-2.2,4.3l.6.8ZM48.8,40.1l.6-2.8-1-.2-.6,2.8,1,.2ZM49.4,37.3c0-.1,0-.2,0-.2,0,0,0,0,.1,0v-1c-.3,0-.6,0-.8.3-.2.2-.3.5-.4.7l1,.2ZM49.6,37c0,0,0,0,0,0,0,0,0,0,0,0,0,0,0,0,0,0,0,0,0,0,0,0,0,0,0,.1,0,.2h1c0-.2,0-.6-.2-.8-.2-.3-.6-.4-.9-.4v1ZM49.7,37.3l-.5,8.5h1c0,0,.5-8.5.5-8.5h-1ZM49.2,45.9c0,.3-.1.4-.2.5,0,0-.2.1-.5.1v1c.4,0,.9-.1,1.2-.4.3-.3.5-.7.5-1.2h-1ZM48.5,46.5h-16.8v1h16.8v-1ZM53,55.7v.5s0,0,0,0h0s0-.5,0-.5ZM53.6,55.6v-.5c0,0,0,.5,0,.5ZM54.9,55.1l-.4-.3h0s0,0,0,0l.4.3ZM55,26.5l-.4.3h0s0,0,0,0l.4-.4ZM54.1,26.1v-.5h0v.5ZM53,25.9v-.5c0,0,0,0,0,0h0s0,.5,0,.5ZM53.2,24.9v-.5c0,0,0,0,0,0v.5ZM55.4,24.1l-.3-.4h0s.3.4.3.4ZM57.1,22.8l.3.4h0s0,0,0,0l-.4-.4ZM58.6,24.9l-.2.4h0s0,0,0,0l.2-.5ZM59.2,24.6l.4.4h0l-.4-.4ZM59.8,24.1l-.4-.4h0l.4.4ZM61.7,22.7l.2.5h0s0,0,0,0l-.2-.5ZM67.9,23.7l-.3.4h0s0,0,0,0l.3-.4ZM70.6,27.8l-.5.2h0s.5-.2.5-.2ZM70.4,40.9l-.5-.2h0l.5.2ZM66.9,45.7l-.3-.4h0s.3.4.3.4ZM59.4,46.9l.2-.5h0s-.2.5-.2.5ZM58.8,55l-.4.3h0s.4-.3.4-.3ZM60.2,55.5v.5c0,0,0,0,0,0v-.5ZM61.9,55.7v-.5c0,0,0,0,0,0h0s0,.5,0,.5ZM66.4,43.1l-.4-.2h0s.4.2.4.2ZM66.6,27l.4-.2h0l-.4.2ZM59.5,45l-.4.3h0s.4-.3.4-.3ZM53,56.3c0,0-.2,0-.2,0,0,0,0,0,0,0,0,0,0,0,0,0,0,0,0,0,0,0h-1c0,.3.1.6.4.8.2.2.5.2.8.2v-1ZM52.8,56.3s0,0,0,0c0,0,0,0,0,0,0,0,0,0,0,0,0,0,0,0,.2,0v-1c-.3,0-.6,0-.8.3-.2.2-.3.5-.3.8h1ZM53,56.2h.7c0,0-.1-1.1-.1-1.1h-.7c0,0,.1,1.1.1,1.1ZM53.7,56.1c.7,0,1.3-.3,1.6-.8l-.8-.6c0,0-.3.3-1,.4v1ZM55.3,55.4c.3-.4.4-1,.4-1.7h-1c0,.6-.1,1-.2,1.1l.8.6ZM55.8,53.6v-26h-1v26h1ZM55.8,27.7c0-.3,0-.6,0-.8,0-.2-.2-.5-.3-.7l-.7.7s0,0,0,.2c0,.1,0,.3,0,.6h1ZM55.4,26.2c-.3-.4-.7-.6-1.2-.6v1c.3,0,.4.2.4.2l.8-.6ZM54.1,25.6h-1c0-.1-.1.8-.1.8h1c0,.1.1-.8.1-.8ZM53.1,25.4c0,0-.1,0-.2,0,0,0,0,0,0,0,0,0,0,0,0,0,0,0,0,0,0,0h-1c0,.3,0,.6.3.8.2.2.5.3.8.3v-1ZM52.9,25.4s0,0,0,0c0,0,0,0,0,0,0,0,.2,0,.4-.1l-.2-1c-.3,0-.6.1-.8.3-.2.2-.4.4-.4.7h1ZM53.3,25.4c1-.2,1.9-.4,2.5-.8l-.6-.8c-.4.3-1.1.5-2.1.7l.2,1ZM55.7,24.5c.6-.4,1.1-.8,1.7-1.3l-.7-.7c-.6.5-1.1.9-1.6,1.2l.5.8ZM57.5,23.2c.1-.1.2-.2.3-.2,0,0,0,0,0,0v-1c-.2,0-.4,0-.6.2-.2.1-.3.2-.5.4l.7.7ZM57.8,22.9s0,0,0,0c0,0,0,0,0,0,0,0,0,0,0,0,0,0,0,0,0,0,0,0,0,0,0,.1h1c0-.2,0-.5-.2-.7-.2-.2-.5-.3-.7-.3v1ZM57.8,23v1.5h1v-1.5h-1ZM57.8,24.4c0,.2,0,.4.1.5.1.2.3.3.4.4l.4-.9s0,0,0,0c0,0,0,0,0,0,0,0,0,0,0,0,0,0,0,0,0,0h-1ZM58.4,25.4c.5.2.9-.1,1.2-.4l-.7-.7c-.1.1-.2.1-.2.2,0,0,0,0,0,0l-.3.9ZM59.6,25l.5-.5-.7-.7-.5.5.7.7ZM60.1,24.5c.6-.6,1.2-1,1.8-1.3l-.4-.9c-.7.3-1.4.8-2.1,1.5l.7.7ZM61.9,23.2c.6-.3,1.3-.4,2.1-.4v-1c-.9,0-1.8.2-2.5.5l.4.9ZM64,22.7c1.3,0,2.5.4,3.6,1.4l.7-.7c-1.2-1.1-2.6-1.6-4.2-1.6v1ZM67.6,24.1c1.1.9,1.9,2.2,2.5,3.8l.9-.3c-.7-1.8-1.6-3.2-2.8-4.2l-.6.8ZM70.1,27.9c.6,1.7,1,3.6,1,5.9h1c0-2.4-.3-4.5-1-6.3l-.9.4ZM71.1,33.8c0,2.6-.4,4.9-1.2,6.9l.9.4c.9-2.1,1.3-4.5,1.3-7.2h-1ZM69.9,40.7c-.8,2-1.9,3.5-3.3,4.6l.6.8c1.6-1.2,2.8-2.9,3.6-5l-.9-.4ZM66.6,45.3c-1.3,1.1-2.9,1.6-4.7,1.6v1c2,0,3.8-.6,5.3-1.8l-.6-.8ZM61.9,46.9c-.9,0-1.7-.2-2.3-.5l-.4.9c.8.4,1.7.6,2.8.6v-1ZM59.6,46.4c-.3-.1-.7-.3-1.1,0-.4.2-.5.7-.5,1h1c0-.1,0-.2,0-.2,0,0,0,0,0,0,0,0,0,0,0,0,0,0,.1,0,.2,0l.4-.9ZM58,47.4v6.2h1v-6.2h-1ZM58,53.6c0,.4,0,.7,0,.9,0,.3.2.5.3.7l.8-.7s0,0-.1-.3c0-.2,0-.4,0-.7h-1ZM58.4,55.3c.4.4,1,.6,1.6.7v-1c-.5,0-.8-.3-.9-.4l-.8.7ZM60.1,56l1.8.2v-1c.1,0-1.6-.2-1.6-.2v1ZM61.8,56.2c.1,0,.1,0,.1,0,0,0,0,0,0,0,0,0,0,0,0,0h1c0-.3,0-.5-.3-.7-.2-.2-.4-.3-.7-.3l-.2,1ZM62,56.3s0,0,0,0c0,0,0,0,0,0,0,0,0,0-.2,0v1c.3,0,.6,0,.9-.3.3-.2.4-.5.4-.8h-1ZM61.7,56.3h-8.7v1h8.7v-1ZM62.1,46.7c2,0,3.6-1.2,4.8-3.4l-.9-.5c-1,2-2.3,2.9-3.9,2.9v1ZM66.8,43.3c1.2-2.2,1.7-5.2,1.7-8.8h-1c0,3.5-.6,6.3-1.6,8.3l.9.5ZM68.6,34.5c0-3.3-.5-5.9-1.5-7.8l-.9.5c.9,1.6,1.4,4,1.4,7.3h1ZM67.1,26.7c-1-1.9-2.5-2.8-4.5-2.8v1c1.6,0,2.8.7,3.6,2.3l.9-.5ZM62.5,23.9c-1.2,0-2.3.5-3.2,1.5l.7.7c.7-.8,1.5-1.2,2.5-1.2v-1ZM59.3,25.4c-.9,1-1.3,2.4-1.3,4.1h1c0-1.5.4-2.6,1.1-3.4l-.7-.7ZM58,29.5v12.1h1v-12.1h-1ZM58,41.6c0,1.5.3,2.8,1.1,3.7l.8-.6c-.6-.7-.9-1.7-.9-3.1h-1ZM59.1,45.3c.8.9,1.8,1.4,3,1.4v-1c-.9,0-1.6-.3-2.2-1.1l-.8.6ZM76.8,17.2l-.4.3h0s0,0,0,0l.4-.4ZM76.8,13.6l-.4-.4h0l.4.4ZM80.2,13.6l-.4.3h0s0,0,0,0l.4-.4ZM80.2,17.2l.4.3h0l-.4-.3ZM74.4,45.9v-.5c0,0,0,0,0,0h0s.1.5.1.5ZM75,45.8v-.5c0,0,0,0,0,0v.5ZM76.5,45.2l.4.3h0s0,0,0,0l-.4-.3ZM76.6,26.5l-.4.3h0s0,0,0,0l.4-.4ZM75.7,26.1v-.5h0v.5ZM74.7,25.9v-.5c0,0,0,0,0,0h0s0,.5,0,.5ZM74.8,24.9v-.5c0,0,0,0,0,0v.5ZM79,22.8l.3.4h0s0,0,0,0l-.4-.4ZM80.4,45.2l.4-.3h0l-.4.3ZM81.5,45.8v-.5c0,0,0,0,0,0v.5ZM82.7,45.9v-.5c0,0,0,0,0,0h0s0,.5,0,.5ZM78.6,17.5c-.5,0-1-.2-1.4-.6l-.7.7c.6.6,1.3.9,2.1.9v-1ZM77.2,16.9c-.4-.4-.5-.9-.5-1.5h-1c0,.8.3,1.6.8,2.2l.7-.7ZM76.7,15.4c0-.6.2-1.1.5-1.4l-.7-.7c-.6.6-.8,1.3-.8,2.1h1ZM77.2,14c.4-.4.8-.6,1.4-.6v-1c-.8,0-1.5.3-2.1.9l.7.7ZM78.6,13.4c.5,0,1,.2,1.3.6l.7-.7c-.5-.6-1.2-.9-2-.9v1ZM79.9,14c.3.3.5.8.5,1.4h1c0-.8-.3-1.6-.8-2.1l-.7.7ZM80.4,15.4c0,.6-.2,1.1-.5,1.5l.7.7c.5-.6.8-1.3.8-2.2h-1ZM79.9,16.9c-.4.4-.8.6-1.3.6v1c.8,0,1.5-.3,2-.9l-.7-.7ZM74.5,46.5c0,0-.2,0-.2,0,0,0,0,0,0,0,0,0,0,0,0,0,0,0,0,0,0,0h-1c0,.3.1.6.4.8.2.2.5.2.8.2v-1ZM74.3,46.5s0,0,0,0c0,0,0,0,0,0,0,0,0,0,.2,0l-.2-1c-.3,0-.5.2-.7.3-.2.2-.3.4-.3.7h1ZM74.5,46.4h.6c0,0-.2-1.1-.2-1.1h-.6c0,0,.2,1.1.2,1.1ZM75.1,46.3c.4,0,.8-.2,1.1-.3.3-.1.6-.3.8-.5l-.8-.7s-.1.1-.4.2c-.2,0-.5.2-.9.2l.2,1ZM76.9,45.5c.3-.4.4-1,.4-1.7h-1c0,.6-.1,1-.2,1.1l.8.6ZM77.4,43.8v-16.1h-1v16.1h1ZM77.4,27.7c0-.3,0-.6,0-.8,0-.2-.2-.5-.3-.7l-.7.7s0,0,0,.2c0,.1,0,.3,0,.6h1ZM77,26.2c-.3-.4-.7-.6-1.2-.6v1c.3,0,.4.2.4.2l.8-.6ZM75.7,25.6h-1c0-.1-.1.8-.1.8h1c0,.1.1-.8.1-.8ZM74.7,25.4c0,0-.1,0-.2,0,0,0,0,0,0,0,0,0,0,0,0,0,0,0,0,0,0,0h-1c0,.3,0,.6.3.8.2.2.5.3.8.3v-1ZM74.5,25.4s0,0,0,0c0,0,0,0,0,0,0,0,.2,0,.4-.1l-.2-1c-.3,0-.6.1-.8.3-.2.2-.4.4-.4.7h1ZM74.9,25.4c1-.2,1.9-.4,2.6-.8l-.5-.9c-.5.3-1.3.6-2.2.7l.2,1ZM77.5,24.5c.6-.4,1.3-.8,1.9-1.4l-.7-.7c-.6.5-1.1.9-1.7,1.2l.5.9ZM79.3,23.2c.1-.1.2-.2.3-.2,0,0,0,0,0,0v-1c-.2,0-.4,0-.6.2-.2.1-.3.2-.5.4l.7.7ZM79.7,22.9s0,0,0,0c0,0,0,0,0,0,0,0,0,0,0,0,0,0,0,0,0,0,0,0,0,0,0,.1h1c0-.2,0-.5-.2-.7-.2-.2-.5-.3-.7-.3v1ZM79.6,23v20.8h1v-20.8h-1ZM79.6,43.8c0,.7,0,1.3.4,1.7l.8-.6c-.1-.2-.2-.5-.2-1.2h-1ZM80,45.5c.3.5.9.7,1.5.7v-1c-.4,0-.6-.2-.6-.3l-.8.6ZM81.5,46.2h1.2c0,.1.1-.8.1-.8h-1.2c0-.1-.1.8-.1.8ZM82.6,46.4c.1,0,.1,0,.1,0,0,0,0,0,0,0,0,0,0,0,0,0h1c0-.3,0-.5-.3-.7-.2-.2-.4-.3-.7-.3l-.2,1ZM82.8,46.4s0,0,0,0c0,0,0,0,0,0,0,0,0,0-.2,0v1c.3,0,.6,0,.9-.3.3-.2.4-.5.4-.8h-1ZM82.5,46.5h-8v1h8v-1ZM87.7,47.1v-.5c.1,0,.1,0,.1,0h0s0,.5,0,.5ZM85.7,46.5l-.2.4h0s0,0,0,0l.2-.4ZM85.3,45.7h.5,0s-.5,0-.5,0ZM85.1,40.3h-.5,0s.5,0,.5,0ZM86.5,40.3h.5c0-.1,0-.1,0-.1h-.5ZM88.4,44.9l-.4.3h0s.4-.3.4-.3ZM93.6,45.1l.4.3h0s-.4-.3-.4-.3ZM89.9,35.4l.3-.4h0s-.3.4-.3.4ZM86.3,32.1l-.4.3h0s.4-.3.4-.3ZM87,23.9l-.3-.4h0l.3.4ZM94,22.5v.5c-.1,0-.1,0-.1,0h0s.1-.5.1-.5ZM95.6,23.1l-.3.4h0l.3-.4ZM96.1,23.9h-.5,0s.5,0,.5,0ZM96.1,29.2h.5,0s-.5,0-.5,0ZM95.1,29.7l-.4.3h0s0,0,0,0l.4-.3ZM94.9,29.1h.5c0-.1,0-.1,0-.1h-.5ZM92.9,24.8l-.4.3h0s.4-.3.4-.3ZM88.5,24.4l.4.3h0l-.4-.3ZM88.7,29.5l.4-.3h0l-.4.3ZM92.4,32.6l.3-.4h0s-.3.4-.3.4ZM96,36.3l-.4.3h0s.4-.3.4-.3ZM95.2,45.6l.3.4h0s-.3-.4-.3-.4ZM90.1,46.9c-.7,0-1.4,0-2.2-.3l-.2,1c.9.2,1.7.3,2.5.3v-1ZM87.8,46.7c-.8-.2-1.4-.4-1.9-.6l-.4.9c.6.3,1.3.5,2.1.7l.2-1ZM85.9,46.1c0,0-.2-.1-.2-.4h-1c0,.5.2,1,.7,1.3l.5-.9ZM85.8,45.7v-5.4c-.1,0-1.1,0-1.1,0v5.4c.1,0,1.1,0,1.1,0ZM85.6,40.3c0-.2,0-.3,0-.3,0,0,0,0,0,0,0,0,0,0,0,0,0,0,0,0,0,0v-1c-.3,0-.6.1-.9.4-.2.3-.3.6-.3.9h1ZM85.7,40s0,0,0,0c0,0,.1.1.2.4l1-.2c0-.3-.2-.6-.4-.8-.2-.2-.5-.3-.8-.3v1ZM86,40.4c.5,2.3,1.2,3.9,2.1,4.9l.7-.7c-.7-.7-1.3-2.2-1.8-4.4l-1,.2ZM88.1,45.3c.9.9,2,1.4,3.2,1.4v-1c-1,0-1.8-.4-2.5-1.1l-.7.7ZM91.3,46.7c1.1,0,2-.4,2.7-1.2l-.8-.7c-.5.6-1.1.9-1.9.9v1ZM94,45.4c.7-.9,1-2,1-3.3h-1c0,1.2-.3,2.1-.8,2.7l.8.6ZM95,42.1c0-1.4-.4-2.6-1.1-3.7l-.8.6c.6.9,1,1.9,1,3.1h1ZM93.9,38.4c-.8-1.1-2-2.2-3.7-3.4l-.6.8c1.6,1.2,2.8,2.2,3.4,3.1l.8-.6ZM90.2,35c-1.6-1.1-2.8-2.2-3.5-3.2l-.8.6c.8,1.2,2.1,2.4,3.8,3.5l.6-.8ZM86.7,31.8c-.7-1.1-1.1-2.2-1.1-3.5h-1c0,1.4.4,2.8,1.2,4l.8-.6ZM85.6,28.3c0-1.7.6-3,1.7-4l-.7-.8c-1.4,1.2-2.1,2.8-2.1,4.8h1ZM87.4,24.3c1.2-1,2.7-1.6,4.8-1.6v-1c-2.2,0-4,.6-5.4,1.8l.7.8ZM92.1,22.7c.6,0,1.2,0,1.7.2l.3-1c-.7-.2-1.3-.3-2-.3v1ZM93.9,23c.6.1,1,.3,1.5.6l.6-.8c-.5-.4-1.1-.6-1.8-.7l-.2,1ZM95.3,23.6c.2.1.2.2.2.4h1c0-.5-.2-.9-.7-1.2l-.6.8ZM95.6,23.9v5.3c0,0,1.1,0,1.1,0v-5.3c0,0-1.1,0-1.1,0ZM95.6,29.2c0,.2,0,.2,0,.2,0,0,0,0,0,0,0,0,0,0,0,0v1c.3,0,.6-.1.8-.4.2-.2.3-.6.3-.9h-1ZM95.6,29.4c0,0,0,0-.1,0,0,0,0,0,0,0,0,0,0,0,0,0l-.8.6c.2.3.6.4.9.4v-1ZM95.5,29.5c0-.1-.1-.3-.2-.5l-1,.3c0,.3.2.5.3.7l.9-.5ZM95.3,29c-.6-2.1-1.3-3.6-2-4.5l-.8.6c.6.7,1.2,2.1,1.8,4.2l1-.3ZM93.3,24.5c-.7-.9-1.6-1.4-2.7-1.4v1c.8,0,1.4.3,2,1.1l.8-.6ZM90.6,23.1c-1,0-1.8.3-2.4,1l.7.7c.4-.5,1-.7,1.7-.7v-1ZM88.2,24.1c-.6.7-1,1.5-1,2.5h1c0-.7.2-1.3.7-1.8l-.7-.7ZM87.2,26.6c0,1.2.4,2.3,1.1,3.2l.8-.6c-.6-.7-.9-1.6-.9-2.6h-1ZM88.3,29.8c.7.9,2,1.9,3.8,3.2l.6-.8c-1.8-1.2-2.9-2.2-3.5-3l-.8.6ZM92.1,33c1.6,1.1,2.7,2.3,3.5,3.6l.9-.5c-.8-1.4-2.1-2.7-3.7-3.9l-.6.8ZM95.5,36.6c.8,1.2,1.2,2.6,1.2,4.1h1c0-1.7-.4-3.2-1.3-4.6l-.8.5ZM96.7,40.7c0,1.9-.6,3.4-1.8,4.6l.7.7c1.4-1.4,2.1-3.1,2.1-5.3h-1ZM94.9,45.2c-1.2,1.1-2.8,1.7-4.8,1.7v1c2.2,0,4.1-.6,5.5-2l-.7-.7ZM103.9,45.8l-.3.4h0s.3-.4.3-.4ZM100.8,28.4l-.5-.2h0l.5.2ZM103.9,23.9l-.3-.4h0l.3.4ZM112.6,23.9l-.3.4h0s.3-.4.3-.4ZM115.8,28.4l.5-.2h0l-.5.2ZM115.8,41.2l-.5-.2h0s.5.2.5.2ZM112.7,45.8l.3.4h0s-.3-.4-.3-.4ZM108.3,46.9c-1.5,0-2.9-.5-4.1-1.5l-.6.8c1.4,1.2,3,1.7,4.7,1.7v-1ZM104.2,45.4c-1.2-1.1-2.2-2.5-2.9-4.4l-.9.4c.8,2,1.9,3.6,3.2,4.8l.7-.8ZM101.3,41.1c-.7-1.9-1.1-3.9-1.1-6.2h-1c0,2.4.4,4.6,1.2,6.6l.9-.4ZM100.1,34.8c0-2.3.4-4.4,1.1-6.2l-.9-.4c-.8,2-1.2,4.2-1.2,6.6h1ZM101.2,28.6c.7-1.8,1.7-3.3,3-4.3l-.6-.8c-1.4,1.2-2.5,2.8-3.3,4.7l.9.4ZM104.2,24.3c1.2-1,2.6-1.6,4-1.6v-1c-1.7,0-3.3.6-4.7,1.8l.6.8ZM108.3,22.7c1.5,0,2.8.5,4,1.6l.7-.8c-1.4-1.2-2.9-1.8-4.7-1.8v1ZM112.3,24.3c1.2,1.1,2.2,2.5,3,4.3l.9-.4c-.8-1.9-1.9-3.5-3.3-4.7l-.6.8ZM115.3,28.6c.7,1.8,1.1,3.9,1.1,6.2h1c0-2.4-.4-4.6-1.2-6.6l-.9.4ZM116.4,34.8c0,2.3-.4,4.4-1.1,6.2l.9.4c.8-2,1.2-4.2,1.2-6.6h-1ZM115.3,41.1c-.7,1.9-1.7,3.3-2.9,4.4l.6.8c1.4-1.2,2.5-2.8,3.2-4.8l-.9-.4ZM112.4,45.4c-1.2,1-2.6,1.5-4.1,1.5v1c1.8,0,3.3-.6,4.7-1.7l-.6-.8ZM108.3,46.7c.9,0,1.8-.3,2.5-.8.7-.5,1.3-1.3,1.7-2.3.9-2,1.3-4.9,1.3-8.8h-1c0,3.8-.4,6.6-1.2,8.4-.4.9-.9,1.5-1.4,1.9-.5.4-1.2.6-1.9.6v1ZM113.8,34.8c0-3.8-.4-6.7-1.3-8.7-.4-1-1-1.8-1.7-2.3-.7-.5-1.6-.8-2.5-.8v1c.7,0,1.3.2,1.9.6.5.4,1,1,1.4,1.9.8,1.8,1.2,4.6,1.2,8.3h1ZM108.3,22.9c-.9,0-1.8.3-2.5.8-.7.5-1.3,1.3-1.7,2.3-.9,2-1.3,4.9-1.3,8.7h1c0-3.8.4-6.5,1.2-8.3.4-.9.9-1.5,1.4-1.9.5-.4,1.2-.6,1.9-.6v-1ZM102.8,34.8c0,3.8.4,6.8,1.3,8.8.4,1,1,1.8,1.7,2.3.7.5,1.6.8,2.5.8v-1c-.7,0-1.3-.2-1.9-.6-.5-.4-1-1-1.4-1.9-.8-1.8-1.2-4.6-1.2-8.4h-1ZM123,46l-.3.4h0s0,0,0,0l.3-.4ZM120.5,41.9l-.5.2h0s.5-.2.5-.2ZM120.8,28.8l.5.2h0s-.5-.2-.5-.2ZM124.3,24l.3.4h0l-.3-.4ZM130.6,22.4v.5c-.1,0,0,0,0,0h0s0-.5,0-.5ZM131.9,22.8l.2-.4h0s0,0,0,0l-.2.5ZM132.4,15.1l-.4.3h0s0,0,0,0l.4-.3ZM131.5,14.7v.5c0,0,0,0,0,0h0s0-.5,0-.5ZM130.2,14.6v.5c0,0,0,0,0,0h0s0-.5,0-.5ZM130.2,13.4v.5c0,0,0,0,0,0v-.5ZM132.7,12.7l-.2-.5h0s.2.5.2.5ZM134.3,12l.3.4h0s-.3-.4-.3-.4ZM138.1,43.6l.4.3h0s-.4-.3-.4-.3ZM138.6,45.9l.4.3h0s-.4-.3-.4-.3ZM133.8,46.5l-.4.3h0s.4-.3.4-.3ZM132.8,44.3h-.5c0,0,0,0,0,0h0s.5,0,.5,0ZM132.5,43.9v.5c0,0,0,0,0,0h0v-.5ZM131.9,44.2l.4.3h0s0,0,0,0l-.4-.3ZM130.2,44.4l.3.4h0s-.3-.4-.3-.4ZM131.9,42.1l-.4-.2h0s.5.2.5.2ZM131.7,24.7l-.4.3h0s.4-.3.4-.3ZM124.7,26.6l-.4-.2h0s.4.2.4.2ZM124.4,42.7l-.5.2h0s.4-.2.4-.2ZM126.8,46.9c-1.3,0-2.4-.4-3.5-1.3l-.7.8c1.2,1,2.6,1.6,4.1,1.6v-1ZM123.4,45.6c-1-.9-1.8-2.2-2.4-3.9l-.9.3c.6,1.8,1.5,3.2,2.7,4.3l.7-.7ZM120.9,41.7c-.6-1.7-.9-3.7-.9-5.9h-1c0,2.3.3,4.4.9,6.3l.9-.3ZM120.1,35.8c0-2.6.4-4.9,1.2-6.9l-.9-.4c-.9,2.1-1.3,4.5-1.3,7.2h1ZM121.3,28.9c.8-2,1.9-3.5,3.3-4.6l-.6-.8c-1.6,1.2-2.8,2.9-3.6,5l.9.4ZM124.6,24.4c1.4-1.1,2.9-1.6,4.7-1.6v-1c-2,0-3.7.6-5.3,1.8l.6.8ZM129.3,22.7c.4,0,.8,0,1.2.1l.2-1c-.5-.1-1-.2-1.4-.2v1ZM130.5,22.9c.4,0,.8.2,1.2.3l.4-.9c-.5-.2-.9-.4-1.4-.4v1ZM131.7,23.2c.2,0,.3.1.5.2.2,0,.3,0,.5,0,.4-.2.5-.6.5-.9h-1s0,0,0,0c0,0,0,0,0,0,0,0,0,0,0,0,0,0,0,0,0,0,0,0,0,0,0,0,0,0-.1,0-.2,0l-.4.9ZM133.2,22.4v-6.1h-1v6.1h1ZM133.2,16.3c0-.6,0-1.2-.4-1.5l-.8.7c0,0,.2.3.2.9h1ZM132.8,14.8c-.3-.4-.8-.6-1.3-.6v1c.3,0,.4.1.5.2l.8-.6ZM131.5,14.2h-1.2c0-.1-.1.8-.1.8h1.2c0,.1.1-.8.1-.8ZM130.3,14.1c-.1,0-.1,0-.1,0,0,0,0,0,0,0,0,0,0,0,0,0h-1c0,.3,0,.5.3.7.2.2.4.3.7.3l.2-1ZM130.2,14s0,0,0,0c0,0,0,0,0,0,0,0,0,0,.1,0l-.2-1c-.2,0-.5.1-.7.3-.2.2-.3.5-.3.7h1ZM130.3,13.9c1-.2,1.9-.4,2.6-.7l-.4-.9c-.6.2-1.3.5-2.3.6l.2,1ZM132.9,13.2c.7-.3,1.2-.5,1.7-.8l-.5-.9c-.4.2-.9.5-1.5.7l.4.9ZM134.5,12.4c.2-.2.4-.3.6-.3.2,0,.3,0,.3,0v-1c-.2,0-.5,0-.7.2-.2,0-.5.2-.7.4l.5.8ZM135.4,12s0,0,0,0c0,0,0,0,0,0,0,0,0,0,0,0,0,0,0,0,0,0,0,0,0,.1,0,.2h1c0-.3,0-.6-.2-.9-.2-.3-.5-.4-.8-.4v1ZM135.4,12.2v30.2h1V12.2h-1ZM135.4,42.4c0,.7,0,1.3.3,1.7.1.2.3.4.5.6.2.1.5.2.7.2v-1c0,0-.1,0-.2,0,0,0,0,0-.1-.2-.1-.2-.2-.6-.2-1.3h-1ZM136.9,45c.7,0,1.2-.4,1.6-1l-.8-.5c-.3.5-.6.6-.7.6v1ZM138.5,43.9c.4-.7.6-1.8.6-3.1h-1c0,1.3-.2,2.2-.5,2.6l.9.5ZM139.1,40.8c0-.2,0-.3,0-.3,0,0,0,0,0,0,0,0,0,0,0,0,0,0,0,0,0,0,0,0,0,0,0,0v-1c-.3,0-.6.1-.9.4-.2.3-.3.6-.3.9h1ZM139.2,40.5s0,0,0,0c0,0,0,0,0,0,0,0,0,0,0,.3h1c0-.3,0-.6-.2-.9-.2-.3-.5-.4-.8-.4v1ZM139.3,40.8c0,2.3-.4,3.9-1.1,4.8l.8.6c.9-1.2,1.3-3,1.3-5.4h-1ZM138.2,45.6c-.7.9-1.5,1.3-2.3,1.3v1c1.2,0,2.3-.6,3.1-1.7l-.8-.6ZM135.9,46.9c-.8,0-1.4-.3-1.7-.7l-.8.6c.6.8,1.5,1.1,2.5,1.1v-1ZM134.2,46.2c-.4-.6-.7-1.3-.9-2l-1,.2c.2.9.5,1.8,1.1,2.5l.8-.6ZM133.3,44.2c0-.2,0-.4-.2-.6-.2-.2-.4-.3-.6-.3v1s0,0,0,0c0,0,0,0,0,0,0,0,0,0,0,0,0,0,0,0,0,0h1ZM132.6,43.4c-.5,0-.8.2-1,.6l.8.5s0,0,0,0c0,0,0,0,0,0,0,0,0,0,0,0,0,0,0,0,0,0,0,0,0,0,0,0l.2-1ZM131.5,43.9c-.9,1.2-1.7,2-2.3,2.4l.5.9c.8-.5,1.7-1.4,2.6-2.7l-.8-.6ZM129.2,46.3c-.6.4-1.4.6-2.4.6v1c1.1,0,2.1-.2,2.9-.7l-.5-.9ZM127.9,45.7c1,0,1.8-.3,2.6-.9l-.6-.8c-.6.5-1.3.7-2,.7v1ZM130.5,44.8c.8-.6,1.4-1.5,1.9-2.5l-.9-.4c-.4.9-1,1.6-1.6,2.1l.6.8ZM132.4,42.3c.5-1,.8-2.2.8-3.4h-1c0,1.1-.2,2.1-.7,3l.9.4ZM133.2,38.9v-10.8h-1v10.8h1ZM133.2,28.1c0-1.5-.4-2.8-1.1-3.7l-.8.6c.6.7.9,1.7.9,3.1h1ZM132.1,24.4c-.7-1-1.7-1.4-2.9-1.4v1c.9,0,1.6.3,2.1,1.1l.8-.6ZM129.1,22.9c-2,0-3.6,1.2-4.8,3.4l.9.5c1.1-2,2.4-2.9,3.9-2.9v-1ZM124.3,26.4c-1.1,2.2-1.7,5.1-1.7,8.8h1c0-3.6.5-6.3,1.6-8.3l-.9-.5ZM122.6,35.1c0,3.3.4,5.9,1.3,7.8l.9-.4c-.8-1.6-1.2-4.1-1.2-7.3h-1ZM123.9,42.9c.9,1.8,2.2,2.8,4,2.8v-1c-1.2,0-2.2-.7-3.1-2.3l-.9.5ZM145.2,45.9l.3-.4-.3.4ZM142.2,41.6l-.5.2h0s.5-.2.5-.2ZM154.1,24.6l-.4.3h0s.4-.3.4-.3ZM146.1,42.4l-.4.3h0l.4-.3ZM152.9,43.7l.4.3h0l-.4-.3ZM154.8,39.3h-.5c0-.1,0-.1,0-.1h0s.5.1.5.1ZM155.8,39.8h.5c0,0,0,0,0,0h0s-.5,0-.5,0ZM153.4,45.8l.4.4h0s-.4-.4-.4-.4ZM151.8,25.2l-.5.2h0l.5-.2ZM146.4,25.6l-.4-.3h0s.4.3.4.3ZM144.7,31.7h.5c0,0,0,0,0,0h-.5ZM149.3,46.9c-1.4,0-2.7-.5-3.8-1.4l-.6.8c1.3,1.1,2.8,1.7,4.5,1.7v-1ZM145.5,45.5c-1.1-1-2.1-2.3-2.8-4.1l-.9.4c.8,1.9,1.8,3.4,3.1,4.5l.6-.8ZM142.7,41.4c-.7-1.8-1-3.9-1-6.4h-1c0,2.5.4,4.7,1.1,6.7l.9-.3ZM141.7,35c0-2.5.4-4.6,1.1-6.5l-.9-.4c-.8,2-1.1,4.3-1.1,6.9h1ZM142.7,28.6c.7-1.9,1.7-3.3,2.9-4.3l-.6-.8c-1.4,1.2-2.4,2.7-3.2,4.7l.9.4ZM145.6,24.2c1.2-1,2.5-1.5,3.9-1.5v-1c-1.7,0-3.2.6-4.6,1.8l.6.8ZM149.6,22.7c1.7,0,3.1.7,4.2,2.1l.8-.6c-1.2-1.7-2.9-2.6-5-2.6v1ZM153.7,24.9c1.1,1.4,1.7,3.8,1.7,7.2h1c0-3.5-.6-6.2-1.9-7.8l-.8.6ZM155.4,32.1c0,.5,0,.7-.2.9,0,.1-.2.2-.5.2v1c.5,0,1-.2,1.3-.6.3-.4.4-.9.4-1.5h-1ZM154.7,33.2h-9.1v1h9.1v-1ZM145.6,33.2c-.4,0-.8.1-1.1.4-.3.3-.4.7-.4,1.2h1c0-.3,0-.4.1-.5,0,0,.1-.1.3-.1v-1ZM144.1,34.8c0,3.4.5,6.1,1.6,7.9l.9-.5c-.9-1.6-1.4-4-1.4-7.4h-1ZM145.7,42.7c1.1,1.8,2.5,2.8,4.2,2.8v-1c-1.3,0-2.4-.7-3.4-2.3l-.9.5ZM149.9,45.5c1.4,0,2.5-.5,3.3-1.5l-.7-.7c-.7.8-1.5,1.1-2.6,1.1v1ZM153.3,44c.9-1,1.5-2.5,2-4.6l-1-.2c-.5,2-1.1,3.4-1.8,4.1l.7.7ZM155.2,39.5c0-.1,0-.1,0-.1,0,0,0,0,0,0,0,0,0,0,0,0v-1c-.3,0-.5,0-.7.3-.2.2-.3.4-.4.6l1,.3ZM155.4,39.3s0,0,0,0c0,0,0,0,0,0,0,0,0,0,0,.1,0,0,0,.2,0,.3h1c0-.2,0-.6,0-.9,0-.2-.2-.3-.3-.4-.2,0-.3-.1-.5-.1v1ZM155.3,39.7c-.5,2.8-1.3,4.7-2.3,5.7l.7.7c1.2-1.3,2.1-3.4,2.6-6.3l-1-.2ZM153,45.4c-1,1-2.3,1.5-3.7,1.5v1c1.7,0,3.2-.6,4.4-1.8l-.7-.7ZM145.4,33h4.8v-1h-4.8v1ZM150.3,33c.8,0,1.6-.2,2.1-.8.5-.5.7-1.3.7-2.1h-1c0,.7-.2,1.2-.4,1.5-.3.3-.7.4-1.4.4v1ZM153.1,30.1c0-2.1-.3-3.8-.8-5.1l-.9.4c.5,1.1.7,2.6.7,4.7h1ZM152.3,25c-.3-.6-.6-1.2-1.1-1.5-.5-.4-1-.5-1.6-.5v1c.4,0,.7.1,1,.3.3.2.6.6.8,1.1l.9-.4ZM149.5,22.9c-1.5,0-2.7.9-3.6,2.4l.9.5c.8-1.3,1.7-1.9,2.7-1.9v-1ZM145.9,25.3c-.9,1.5-1.4,3.7-1.7,6.3h1c.3-2.5.8-4.5,1.6-5.8l-.9-.5ZM144.2,31.7c0,.3,0,.7.3,1,.3.3.6.4,1,.4v-1c-.2,0-.2,0-.2,0,0,0,0,0,0-.2h-1ZM161.1,47.1v-.5c.1,0,.1,0,.1,0h0s0,.5,0,.5ZM159,46.5l-.2.4h0s0,0,0,0l.2-.4ZM158.6,45.7h.5s-.5,0-.5,0ZM158.5,40.3h-.5s.5,0,.5,0ZM159.8,40.3h.5c0-.1,0-.1,0-.1h-.5ZM161.8,44.9l-.4.3h0s.4-.3.4-.3ZM167,45.1l.4.3h0s-.4-.3-.4-.3ZM163.3,35.4l.3-.4h0s-.3.4-.3.4ZM159.6,32.1l-.4.3h0s.4-.3.4-.3ZM160.4,23.9l-.3-.4h0l.3.4ZM167.3,22.5v.5c-.1,0-.1,0-.1,0h0s.1-.5.1-.5ZM169,23.1l-.3.4h0l.3-.4ZM169.4,23.9h-.5s.5,0,.5,0ZM169.5,29.2h.5s-.5,0-.5,0ZM168.5,29.7l-.4.3h0s0,0,0,0l.4-.3ZM168.2,29.1h.5c0-.1,0-.1,0-.1h-.5ZM166.3,24.8l-.4.3h0s.4-.3.4-.3ZM161.9,24.4l.4.3h0l-.4-.3ZM162.1,29.5l.4-.3h0l-.4.3ZM165.7,32.6l.3-.4h0s-.3.4-.3.4ZM169.3,36.3l-.4.3h0s.4-.3.4-.3ZM168.6,45.6l.3.4h0s-.3-.4-.3-.4ZM163.4,46.9c-.7,0-1.4,0-2.2-.3l-.2,1c.9.2,1.7.3,2.5.3v-1ZM161.2,46.7c-.8-.2-1.4-.4-1.9-.6l-.4.9c.6.3,1.3.5,2.1.7l.2-1ZM159.3,46.1c0,0-.2-.1-.2-.4h-1c0,.5.2,1,.7,1.3l.5-.9ZM159.1,45.7v-5.4c-.1,0-1.1,0-1.1,0v5.4c.1,0,1.1,0,1.1,0ZM159,40.3c0-.2,0-.3,0-.3,0,0,0,0,0,0,0,0,0,0,0,0,0,0,0,0,0,0v-1c-.3,0-.6.1-.9.4-.2.3-.3.6-.3.9h1ZM159.1,40s0,0,0,0c0,0,.1.1.2.4l1-.2c0-.3-.2-.6-.4-.8-.2-.2-.5-.3-.8-.3v1ZM159.3,40.4c.5,2.3,1.2,3.9,2.1,4.9l.7-.7c-.7-.7-1.3-2.2-1.8-4.4l-1,.2ZM161.4,45.3c.9.9,2,1.4,3.2,1.4v-1c-1,0-1.8-.4-2.5-1.1l-.7.7ZM164.7,46.7c1.1,0,2-.4,2.7-1.2l-.8-.7c-.5.6-1.1.9-1.9.9v1ZM167.4,45.4c.7-.9,1-2,1-3.3h-1c0,1.2-.3,2.1-.8,2.7l.8.6ZM168.4,42.1c0-1.4-.4-2.6-1.1-3.7l-.8.6c.6.9,1,1.9,1,3.1h1ZM167.2,38.4c-.8-1.1-2-2.2-3.7-3.4l-.6.8c1.6,1.2,2.8,2.2,3.4,3.1l.8-.6ZM163.5,35c-1.6-1.1-2.8-2.2-3.5-3.2l-.8.6c.8,1.2,2.1,2.4,3.8,3.5l.6-.8ZM160,31.8c-.7-1.1-1.1-2.2-1.1-3.5h-1c0,1.4.4,2.8,1.2,4l.8-.6ZM159,28.3c0-1.7.6-3,1.7-4l-.7-.8c-1.4,1.2-2.1,2.8-2.1,4.8h1ZM160.7,24.3c1.2-1,2.7-1.6,4.8-1.6v-1c-2.2,0-4,.6-5.4,1.8l.7.8ZM165.5,22.7c.6,0,1.2,0,1.7.2l.3-1c-.6-.2-1.3-.3-2-.3v1ZM167.2,23c.6.1,1,.3,1.5.6l.6-.8c-.5-.4-1.1-.6-1.8-.7l-.2,1ZM168.7,23.6c.2.1.2.2.2.4h1c0-.5-.2-.9-.7-1.2l-.6.8ZM168.9,23.9v5.3c0,0,1.1,0,1.1,0v-5.3c0,0-1.1,0-1.1,0ZM169,29.2c0,.2,0,.2,0,.2,0,0,0,0,0,0,0,0,0,0,0,0v1c.3,0,.6-.1.8-.4.2-.2.3-.6.3-.9h-1ZM168.9,29.4c0,0,0,0-.1,0,0,0,0,0,0,0,0,0,0,0,0,0l-.8.6c.2.3.6.4.9.4v-1ZM168.9,29.5c0-.1-.1-.3-.2-.5l-1,.3c0,.3.2.5.3.7l.9-.5ZM168.7,29c-.6-2.1-1.3-3.6-2-4.5l-.8.6c.6.7,1.2,2.1,1.8,4.2l1-.3ZM166.7,24.5c-.7-.9-1.6-1.4-2.7-1.4v1c.8,0,1.4.3,2,1.1l.8-.6ZM163.9,23.1c-1,0-1.8.3-2.4,1l.7.7c.4-.5,1-.7,1.7-.7v-1ZM161.5,24.1c-.6.7-1,1.5-1,2.5h1c0-.7.2-1.3.7-1.8l-.7-.7ZM160.6,26.6c0,1.2.4,2.3,1.1,3.2l.8-.6c-.6-.7-.9-1.6-.9-2.6h-1ZM161.7,29.8c.7.9,2,1.9,3.8,3.2l.6-.8c-1.8-1.2-2.9-2.2-3.5-3l-.8.6ZM165.4,33c1.6,1.1,2.7,2.3,3.5,3.6l.9-.5c-.8-1.4-2.1-2.7-3.7-3.9l-.6.8ZM168.9,36.6c.8,1.2,1.2,2.6,1.2,4.1h1c0-1.7-.4-3.2-1.3-4.6l-.8.5ZM170.1,40.7c0,1.9-.6,3.4-1.8,4.6l.7.7c1.4-1.4,2.1-3.1,2.1-5.3h-1ZM168.3,45.2c-1.2,1.1-2.8,1.7-4.8,1.7v1c2.2,0,4.1-.6,5.5-2l-.7-.7Z"/>
      </g>
      <path id="orbit" class="cls-3" d="M32.6,23.1c-15.9,2.3-26,6.7-26.7,12.8-1.4,12.5,37.5,27.2,86.9,32.9,49.4,5.7,90.7.2,92.1-12.3.4-3.6-2.6-7.5-8.3-11.2" stroke="url(#shimmer)" stroke-width="1" fill="none" />
      <path id="star_x5F_pink" class="cls-2" d="M185.2,52.6l.7,1.8c.1.3.4.6.7.7l1.8.7c.7.2.7,1.2,0,1.4l-1.8.7c-.3.1-.6.4-.7.7l-.7,1.8c-.2.7-1.2.7-1.4,0l-.7-1.8c-.1-.3-.4-.6-.7-.7l-1.8-.7c-.7-.2-.7-1.2,0-1.4l1.8-.7c.3-.1.6-.4.7-.7l.7-1.8c.2-.7,1.2-.7,1.4,0Z"/>
      <path id="star_x5F_purple" class="cls-4" d="M7.2,30.6l.7,1.8c.1.3.4.6.7.7l1.8.7c.7.2.7,1.2,0,1.4l-1.8.7c-.3.1-.6.4-.7.7l-.7,1.8c-.2.7-1.2.7-1.4,0l-.7-1.8c-.1-.3-.4-.6-.7-.7l-1.8-.7c-.7-.2-.7-1.2,0-1.4l1.8-.7c.3-.1.6-.4.7-.7l.7-1.8c.2-.7,1.2-.7,1.4,0Z"/>
    </g>
  </g>
</svg>